<svg class="generator__canvas" viewBox="0 0 200 200" xmlns="http://www.w3.org/2000/svg" version="1.1" xmlns:xlink="http://www.w3.org/1999/xlink" xmlns:svgjs="http://svgjs.dev/svgjs"><line x1="0" y1="0" x2="10" y2="10" transform="matrix(0.1736994264137576,-0.17980130495502977,0.17980130495502977,0.1736994264137576,3.232496343156063,5.030509392706361)" stroke-linecap="round" stroke-width="4" stroke="#1a1a1a"></line><line x1="0" y1="10" x2="10" y2="20" transform="matrix(0.16901033043948765,-0.18421592820582913,0.18421592820582913,0.16901033043948765,1.391709424715125,13.38592468443683)" stroke-linecap="round" stroke-width="4" stroke="#1a1a1a"></line><line x1="0" y1="20" x2="10" y2="30" transform="matrix(0.1578795106211866,-0.1938402954135559,0.1938402954135559,0.1578795106211866,-0.6354049384448306,22.022213711538114)" stroke-linecap="round" stroke-width="4" stroke="#1a1a1a"></line><line x1="0" y1="30" x2="10" y2="40" transform="matrix(0.1383153265244281,-0.2082519398431641,0.2082519398431641,0.1383153265244281,-2.9803945271328844,31.20022327086084)" stroke-linecap="round" stroke-width="4" stroke="#1a1a1a"></line><line x1="0" y1="40" x2="10" y2="50" transform="matrix(0.10790163844477944,-0.22551549042345648,0.22551549042345648,0.10790163844477944,-5.687705261279438,41.272003722102205)" stroke-linecap="round" stroke-width="4" stroke="#1a1a1a"></line><line x1="0" y1="50" x2="10" y2="60" transform="matrix(0.06450695567050274,-0.24153437161224858,0.24153437161224858,0.06450695567050274,-8.606925217026186,52.65978929618359)" stroke-linecap="round" stroke-width="4" stroke="#1a1a1a"></line><line x1="0" y1="60" x2="10" y2="70" transform="matrix(0.007759351687209518,-0.2498795559092304,0.2498795559092304,0.007759351687209518,-11.280967892536022,65.74503991987753)" stroke-linecap="round" stroke-width="4" stroke="#1a1a1a"></line><line x1="0" y1="70" x2="10" y2="80" transform="matrix(-0.05908248174250625,-0.2429182174130759,0.2429182174130759,-0.05908248174250625,-12.92345389726816,80.64577721775335)" stroke-linecap="round" stroke-width="4" stroke="#1a1a1a"></line><line x1="0" y1="80" x2="10" y2="90" transform="matrix(-0.12858423382852485,-0.21439704944502208,0.21439704944502208,-0.12858423382852485,-12.580828033684252,97.00164512264972)" stroke-linecap="round" stroke-width="4" stroke="#1a1a1a"></line><line x1="0" y1="90" x2="10" y2="100" transform="matrix(-0.19027786868925375,-0.1621552733865757,0.1621552733865757,-0.19027786868925375,-9.453361628278422,113.88717389241198)" stroke-linecap="round" stroke-width="4" stroke="#1a1a1a"></line><line x1="0" y1="100" x2="10" y2="110" transform="matrix(-0.2333049651479276,-0.08982646178785118,0.08982646178785118,-0.2333049651479276,-3.2652536619847368,129.94615364947165)" stroke-linecap="round" stroke-width="4" stroke="#1a1a1a"></line><line x1="0" y1="110" x2="10" y2="120" transform="matrix(-0.24991580542553612,-0.006487695931959615,0.006487695931959615,-0.24991580542553612,5.503493994952325,143.77275610359646)" stroke-linecap="round" stroke-width="4" stroke="#1a1a1a"></line><line x1="0" y1="120" x2="10" y2="130" transform="matrix(-0.23817938393248175,0.0759643407760737,-0.0759643407760737,-0.23817938393248175,15.686439516671621,154.39260128767984)" stroke-linecap="round" stroke-width="4" stroke="#1a1a1a"></line><line x1="0" y1="130" x2="10" y2="140" transform="matrix(-0.20249651952595185,0.14661227636141458,-0.14661227636141458,-0.20249651952595185,25.805139906420727,161.60396875419642)" stroke-linecap="round" stroke-width="4" stroke="#1a1a1a"></line><line x1="0" y1="140" x2="10" y2="150" transform="matrix(-0.1517269002777716,0.19869309935702134,-0.19869309935702134,-0.1517269002777716,34.56913390815696,166.00693504349178)" stroke-linecap="round" stroke-width="4" stroke="#1a1a1a"></line><line x1="0" y1="150" x2="10" y2="160" transform="matrix(-0.09604875087824118,0.23081299238719116,-0.23081299238719116,-0.09604875087824118,41.256257574405836,168.7334914241914)" stroke-linecap="round" stroke-width="4" stroke="#1a1a1a"></line><line x1="0" y1="160" x2="10" y2="170" transform="matrix(-0.04422265249520933,0.24605762944133222,-0.24605762944133222,-0.04422265249520933,45.82062212029586,171.0664495145029)" stroke-linecap="round" stroke-width="4" stroke="#1a1a1a"></line><line x1="0" y1="170" x2="10" y2="180" transform="matrix(-0.002747642086380356,0.24998490046993868,-0.24998490046993868,-0.002747642086380356,48.76109579267117,174.23091286276687)" stroke-linecap="round" stroke-width="4" stroke="#1a1a1a"></line><line x1="0" y1="180" x2="10" y2="190" transform="matrix(0.024054869926795876,0.24884003543000258,-0.24884003543000258,0.024054869926795876,50.915132204916496,179.30564888639276)" stroke-linecap="round" stroke-width="4" stroke="#1a1a1a"></line><line x1="0" y1="190" x2="10" y2="200" transform="matrix(0.03368309248698772,0.24772050637868684,-0.24772050637868684,0.03368309248698772,53.137083281409,187.19319443314396)" stroke-linecap="round" stroke-width="4" stroke="#1a1a1a"></line><line x1="10" y1="0" x2="20" y2="10" transform="matrix(0.20303144687792374,-0.1458705987464809,0.1458705987464809,0.20303144687792374,11.22517530309874,6.172901746807595)" stroke-linecap="round" stroke-width="4" stroke="#1a1a1a"></line><line x1="10" y1="10" x2="20" y2="20" transform="matrix(0.20134184957074389,-0.14819399316919676,0.14819399316919676,0.20134184957074389,9.75696235890089,14.202782153976793)" stroke-linecap="round" stroke-width="4" stroke="#1a1a1a"></line><line x1="10" y1="20" x2="20" y2="30" transform="matrix(0.1948535301692715,-0.15662727023278164,0.15662727023278164,0.1948535301692715,8.161515291641386,22.47807079925994)" stroke-linecap="round" stroke-width="4" stroke="#1a1a1a"></line><line x1="10" y1="30" x2="20" y2="40" transform="matrix(0.18182277564376106,-0.1715822783891114,0.1715822783891114,0.18182277564376106,6.267278621724685,31.209937028305035)" stroke-linecap="round" stroke-width="4" stroke="#1a1a1a"></line><line x1="10" y1="40" x2="20" y2="50" transform="matrix(0.15975259513623327,-0.19229952768334804,0.19229952768334804,0.15975259513623327,3.950232327205839,40.69562613411972)" stroke-linecap="round" stroke-width="4" stroke="#1a1a1a"></line><line x1="10" y1="50" x2="20" y2="60" transform="matrix(0.12571168339426136,-0.21609389778099009,0.21609389778099009,0.12571168339426136,1.2291603711316252,51.327265880030474)" stroke-linecap="round" stroke-width="4" stroke="#1a1a1a"></line><line x1="10" y1="60" x2="20" y2="70" transform="matrix(0.07742982254745216,-0.2377070099518945,0.2377070099518945,0.07742982254745216,-1.6124029850849233,63.532666683694025)" stroke-linecap="round" stroke-width="4" stroke="#1a1a1a"></line><line x1="10" y1="70" x2="20" y2="80" transform="matrix(0.015250433085720409,-0.24953441504269097,0.24953441504269097,0.015250433085720409,-3.9438376244876316,77.59923374421133)" stroke-linecap="round" stroke-width="4" stroke="#1a1a1a"></line><line x1="10" y1="80" x2="20" y2="90" transform="matrix(-0.05638183401991378,-0.24355921003433825,0.24355921003433825,-0.05638183401991378,-4.856805342620042,93.44584404220774)" stroke-linecap="round" stroke-width="4" stroke="#1a1a1a"></line><line x1="10" y1="90" x2="20" y2="100" transform="matrix(-0.12898294585485867,-0.21415741798640223,0.21415741798640223,-0.12898294585485867,-3.4102105208853324,110.4657411260076)" stroke-linecap="round" stroke-width="4" stroke="#1a1a1a"></line><line x1="10" y1="100" x2="20" y2="110" transform="matrix(-0.19161887607711678,-0.16056838521621422,0.16056838521621422,-0.19161887607711678,1.0146026934542576,127.52850776634048)" stroke-linecap="round" stroke-width="4" stroke="#1a1a1a"></line><line x1="10" y1="110" x2="20" y2="120" transform="matrix(-0.2340123782589824,-0.08796707805523003,0.08796707805523003,-0.2340123782589824,8.393971697533283,143.23092967061143)" stroke-linecap="round" stroke-width="4" stroke="#1a1a1a"></line><line x1="10" y1="120" x2="20" y2="130" transform="matrix(-0.24992102762424628,-0.006283307348898383,0.006283307348898383,-0.24992102762424628,17.963401995751397,156.33437806326427)" stroke-linecap="round" stroke-width="4" stroke="#1a1a1a"></line><line x1="10" y1="130" x2="20" y2="140" transform="matrix(-0.2391314057809655,0.07291207560630285,-0.07291207560630285,-0.2391314057809655,28.430101293565368,166.1890586463358)" stroke-linecap="round" stroke-width="4" stroke="#1a1a1a"></line><line x1="10" y1="140" x2="20" y2="150" transform="matrix(-0.2071189084419686,0.14000627759428302,-0.14000627759428302,-0.2071189084419686,38.40769387780057,172.9321475601712)" stroke-linecap="round" stroke-width="4" stroke="#1a1a1a"></line><line x1="10" y1="150" x2="20" y2="160" transform="matrix(-0.16274588158357858,0.18977296442745425,-0.18977296442745425,-0.16274588158357858,46.85599771000909,177.37901717904288)" stroke-linecap="round" stroke-width="4" stroke="#1a1a1a"></line><line x1="10" y1="160" x2="20" y2="170" transform="matrix(-0.115402071532034,0.2217709671848759,-0.2217709671848759,-0.115402071532034,53.323240658485034,180.71477729501248)" stroke-linecap="round" stroke-width="4" stroke="#1a1a1a"></line><line x1="10" y1="170" x2="20" y2="180" transform="matrix(-0.07317898785510248,0.23904986035658496,-0.23904986035658496,-0.07317898785510248,57.93141038022891,184.22057496929415)" stroke-linecap="round" stroke-width="4" stroke="#1a1a1a"></line><line x1="10" y1="180" x2="20" y2="190" transform="matrix(-0.04232156902976802,0.24639173037027556,-0.24639173037027556,-0.04232156902976802,61.2172936539475,189.13361431495295)" stroke-linecap="round" stroke-width="4" stroke="#1a1a1a"></line><line x1="10" y1="190" x2="20" y2="200" transform="matrix(-0.026975458448765727,0.24854038835062384,-0.24854038835062384,-0.026975458448765727,63.87000760510313,196.53210857224997)" stroke-linecap="round" stroke-width="4" stroke="#1a1a1a"></line><line x1="20" y1="0" x2="30" y2="10" transform="matrix(0.2217504924935274,-0.11544140972319268,0.11544140972319268,0.2217504924935274,18.87903063904585,6.77728278061218)" stroke-linecap="round" stroke-width="4" stroke="#1a1a1a"></line><line x1="20" y1="10" x2="30" y2="20" transform="matrix(0.22206902903050763,-0.11482746337635245,0.11482746337635245,0.22206902903050763,17.725862323592022,14.539651148951197)" stroke-linecap="round" stroke-width="4" stroke="#1a1a1a"></line><line x1="20" y1="20" x2="30" y2="30" transform="matrix(0.21899907195635232,-0.12057946127867887,0.12057946127867887,0.21899907195635232,16.51053666912422,22.539509733058164)" stroke-linecap="round" stroke-width="4" stroke="#1a1a1a"></line><line x1="20" y1="30" x2="30" y2="40" transform="matrix(0.21123940257393334,-0.13370831986158427,0.13370831986158427,0.21123940257393334,15.039223740496219,30.94932890645194)" stroke-linecap="round" stroke-width="4" stroke="#1a1a1a"></line><line x1="20" y1="40" x2="30" y2="50" transform="matrix(0.19660620545876523,-0.15442150101299298,0.15442150101299298,0.19660620545876523,13.135877317946186,40.013258279680386)" stroke-linecap="round" stroke-width="4" stroke="#1a1a1a"></line><line x1="20" y1="50" x2="30" y2="60" transform="matrix(0.17202927079481234,-0.18139991728169316,0.18139991728169316,0.17202927079481234,10.722272779636567,50.07338803832765)" stroke-linecap="round" stroke-width="4" stroke="#1a1a1a"></line><line x1="20" y1="60" x2="30" y2="70" transform="matrix(0.13419642698049053,-0.2109296541164136,0.2109296541164136,0.13419642698049053,7.934661807920854,61.55047359917845)" stroke-linecap="round" stroke-width="4" stroke="#1a1a1a"></line><line x1="20" y1="70" x2="30" y2="80" transform="matrix(0.08120433255187309,-0.23644419293948585,0.23644419293948585,0.08120433255187309,5.236577215741736,74.82077988209666)" stroke-linecap="round" stroke-width="4" stroke="#1a1a1a"></line><line x1="20" y1="80" x2="30" y2="90" transform="matrix(0.01450753547901228,-0.2495787078545067,0.2495787078545067,0.01450753547901228,3.4231214453916223,90.00632718064662)" stroke-linecap="round" stroke-width="4" stroke="#1a1a1a"></line><line x1="20" y1="90" x2="30" y2="100" transform="matrix(-0.06025683836080474,-0.24262958070021026,0.24262958070021026,-0.06025683836080474,3.4566107925001432,106.79013916178171)" stroke-linecap="round" stroke-width="4" stroke="#1a1a1a"></line><line x1="20" y1="100" x2="30" y2="110" transform="matrix(-0.1337449800157224,-0.21121619332000569,0.21121619332000569,-0.1337449800157224,6.1659242017924605,124.323627734651)" stroke-linecap="round" stroke-width="4" stroke="#1a1a1a"></line><line x1="20" y1="110" x2="30" y2="120" transform="matrix(-0.19511039957579338,-0.15630717186800563,0.15630717186800563,-0.19511039957579338,11.902435224574187,141.34537524791637)" stroke-linecap="round" stroke-width="4" stroke="#1a1a1a"></line><line x1="20" y1="120" x2="30" y2="130" transform="matrix(-0.23529685675442122,-0.08447123298194113,0.08447123298194113,-0.23529685675442122,20.32351729611789,156.5238879188512)" stroke-linecap="round" stroke-width="4" stroke="#1a1a1a"></line><line x1="20" y1="130" x2="30" y2="140" transform="matrix(-0.2499289291505805,-0.005960735998525869,0.005960735998525869,-0.2499289291505805,30.44352386896352,168.8894238352915)" stroke-linecap="round" stroke-width="4" stroke="#1a1a1a"></line><line x1="20" y1="140" x2="30" y2="150" transform="matrix(-0.24041966954348734,0.06854474813288287,-0.06854474813288287,-0.24041966954348734,40.949480217855196,178.1472333804836)" stroke-linecap="round" stroke-width="4" stroke="#1a1a1a"></line><line x1="20" y1="150" x2="30" y2="160" transform="matrix(-0.2129695121027664,0.13093504845804133,-0.13093504845804133,-0.2129695121027664,50.61917031356557,184.73689816447776)" stroke-linecap="round" stroke-width="4" stroke="#1a1a1a"></line><line x1="20" y1="160" x2="30" y2="170" transform="matrix(-0.17623567933410797,0.17731606055190113,-0.17731606055190113,-0.17623567933410797,58.66304197441639,189.64598557633028)" stroke-linecap="round" stroke-width="4" stroke="#1a1a1a"></line><line x1="20" y1="170" x2="30" y2="180" transform="matrix(-0.13887130719294064,0.20788160101010364,-0.20788160101010364,-0.13887130719294064,64.85106285659165,194.10543873351202)" stroke-linecap="round" stroke-width="4" stroke="#1a1a1a"></line><line x1="20" y1="180" x2="30" y2="190" transform="matrix(-0.10826604733027809,0.22534077082383025,-0.22534077082383025,-0.10826604733027809,69.39469378566554,199.3956994855057)" stroke-linecap="round" stroke-width="4" stroke="#1a1a1a"></line><line x1="20" y1="190" x2="30" y2="200" transform="matrix(-0.08992398476170528,0.23326739370211302,-0.23326739370211302,-0.08992398476170528,72.73524139095468,206.7034921859797)" stroke-linecap="round" stroke-width="4" stroke="#1a1a1a"></line><line x1="30" y1="0" x2="40" y2="10" transform="matrix(0.23224392189200177,-0.09253518651962493,0.09253518651962493,0.23224392189200177,26.40878680118181,7.077511918726864)" stroke-linecap="round" stroke-width="4" stroke="#1a1a1a"></line><line x1="30" y1="10" x2="40" y2="20" transform="matrix(0.2337498893900685,-0.08866221974511325,0.08866221974511325,0.2337498893900685,25.488820575170905,14.596929350227937)" stroke-linecap="round" stroke-width="4" stroke="#1a1a1a"></line><line x1="30" y1="20" x2="40" y2="30" transform="matrix(0.23287746569311774,-0.0909290161188978,0.0909290161188978,0.23287746569311774,24.576063297768435,22.36057892183348)" stroke-linecap="round" stroke-width="4" stroke="#1a1a1a"></line><line x1="30" y1="30" x2="40" y2="40" transform="matrix(0.22880568440675406,-0.10073707749958236,0.10073707749958236,0.22880568440675406,23.466003333278227,30.51759875824899)" stroke-linecap="round" stroke-width="4" stroke="#1a1a1a"></line><line x1="30" y1="40" x2="40" y2="50" transform="matrix(0.21986727489262578,-0.11898899710179311,0.11898899710179311,0.21986727489262578,21.95014050917741,39.2705875283946)" stroke-linecap="round" stroke-width="4" stroke="#1a1a1a"></line><line x1="30" y1="50" x2="40" y2="60" transform="matrix(0.2033146261517664,-0.14547564329731444,0.14547564329731444,0.2033146261517664,19.88282770333588,48.90934307705885)" stroke-linecap="round" stroke-width="4" stroke="#1a1a1a"></line><line x1="30" y1="60" x2="40" y2="70" transform="matrix(0.17555935602617528,-0.17798570872874775,0.17798570872874775,0.17555935602617528,17.28635147171526,59.81814166380478)" stroke-linecap="round" stroke-width="4" stroke="#1a1a1a"></line><line x1="30" y1="70" x2="40" y2="80" transform="matrix(0.13335958368692236,-0.21145973952232788,0.21145973952232788,0.13335958368692236,14.472934106783125,72.39912210676229)" stroke-linecap="round" stroke-width="4" stroke="#1a1a1a"></line><line x1="30" y1="80" x2="40" y2="90" transform="matrix(0.07577924565304245,-0.23823833849373582,0.23823833849373582,0.07577924565304245,12.09746763017597,86.89710596677214)" stroke-linecap="round" stroke-width="4" stroke="#1a1a1a"></line><line x1="30" y1="90" x2="40" y2="100" transform="matrix(0.005561374377796114,-0.24993813457539846,0.24993813457539846,0.005561374377796114,11.061229112114283,103.21950414424832)" stroke-linecap="round" stroke-width="4" stroke="#1a1a1a"></line><line x1="30" y1="100" x2="40" y2="110" transform="matrix(-0.07045383267427777,-0.23986716628481036,0.23986716628481036,-0.07045383267427777,12.279831683694635,120.79300325076753)" stroke-linecap="round" stroke-width="4" stroke="#1a1a1a"></line><line x1="30" y1="110" x2="40" y2="120" transform="matrix(-0.14247685029162963,-0.2054272307435812,0.2054272307435812,-0.14247685029162963,16.3625582246952,138.57479085956274)" stroke-linecap="round" stroke-width="4" stroke="#1a1a1a"></line><line x1="30" y1="120" x2="40" y2="130" transform="matrix(-0.20042682442035936,-0.14942920749562463,0.14942920749562463,-0.20042682442035936,23.3362879177595,155.28337531489177)" stroke-linecap="round" stroke-width="4" stroke="#1a1a1a"></line><line x1="30" y1="130" x2="40" y2="140" transform="matrix(-0.23702962088026971,-0.07947929809299781,0.07947929809299781,-0.23702962088026971,32.56633148825473,169.78077425209133)" stroke-linecap="round" stroke-width="4" stroke="#1a1a1a"></line><line x1="30" y1="140" x2="40" y2="150" transform="matrix(-0.24993548759324796,-0.005679088089244261,0.005679088089244261,-0.24993548759324796,42.92427429282326,181.4394137841445)" stroke-linecap="round" stroke-width="4" stroke="#1a1a1a"></line><line x1="30" y1="150" x2="40" y2="160" transform="matrix(-0.24208778646081416,0.062397945851632386,-0.062397945851632386,-0.24208778646081416,53.144754133131514,190.33967879661907)" stroke-linecap="round" stroke-width="4" stroke="#1a1a1a"></line><line x1="30" y1="160" x2="40" y2="170" transform="matrix(-0.2202699507299075,0.11824190799138912,-0.11824190799138912,-0.2202699507299075,62.21936309412597,197.20607509073614)" stroke-linecap="round" stroke-width="4" stroke="#1a1a1a"></line><line x1="30" y1="170" x2="40" y2="180" transform="matrix(-0.19265150561596775,0.15932795543752123,-0.15932795543752123,-0.19265150561596775,69.62519489812509,203.13753504248112)" stroke-linecap="round" stroke-width="4" stroke="#1a1a1a"></line><line x1="30" y1="180" x2="40" y2="190" transform="matrix(-0.16685366855227465,0.1861715695014888,-0.1861715695014888,-0.16685366855227465,75.28161875710504,209.3519237496187)" stroke-linecap="round" stroke-width="4" stroke="#1a1a1a"></line><line x1="30" y1="190" x2="40" y2="200" transform="matrix(-0.14905605899808114,0.20070448743354136,-0.20070448743354136,-0.14905605899808114,79.35433711447341,217.0412744444519)" stroke-linecap="round" stroke-width="4" stroke="#1a1a1a"></line><line x1="40" y1="0" x2="50" y2="10" transform="matrix(0.23678032094807264,-0.08021894795949215,0.08021894795949215,0.23678032094807264,33.943790817539266,7.425951053436783)" stroke-linecap="round" stroke-width="4" stroke="#1a1a1a"></line><line x1="40" y1="10" x2="50" y2="20" transform="matrix(0.23905930033081862,-0.07314814369031838,0.07314814369031838,0.23905930033081862,33.145109329758384,14.705776961102048)" stroke-linecap="round" stroke-width="4" stroke="#1a1a1a"></line><line x1="40" y1="20" x2="50" y2="30" transform="matrix(0.23951432468624184,-0.07164417820097824,0.07164417820097824,0.23951432468624184,32.43075093409466,22.236129901887974)" stroke-linecap="round" stroke-width="4" stroke="#1a1a1a"></line><line x1="40" y1="30" x2="50" y2="40" transform="matrix(0.2377318863218267,-0.07735341121027606,0.07735341121027606,0.2377318863218267,31.594695723158136,30.160287483198488)" stroke-linecap="round" stroke-width="4" stroke="#1a1a1a"></line><line x1="40" y1="40" x2="50" y2="50" transform="matrix(0.23259918340132807,-0.09163852836572264,0.09163852836572264,0.23259918340132807,30.409302970482717,38.65677052339775)" stroke-linecap="round" stroke-width="4" stroke="#1a1a1a"></line><line x1="40" y1="50" x2="50" y2="60" transform="matrix(0.22193228048607636,-0.11509154129756682,0.11509154129756682,0.22193228048607636,28.683012606760386,47.97284393165631)" stroke-linecap="round" stroke-width="4" stroke="#1a1a1a"></line><line x1="40" y1="60" x2="50" y2="70" transform="matrix(0.20240799210149654,-0.14673447016103786,0.14673447016103786,0.20240799210149654,26.353899794965194,58.44653167064943)" stroke-linecap="round" stroke-width="4" stroke="#1a1a1a"></line><line x1="40" y1="70" x2="50" y2="80" transform="matrix(0.1702856914658627,-0.18303765536630165,0.18303765536630165,0.1702856914658627,23.609319731563556,70.46526763154387)" stroke-linecap="round" stroke-width="4" stroke="#1a1a1a"></line><line x1="40" y1="80" x2="50" y2="90" transform="matrix(0.12309215510680578,-0.21759669425605266,0.21759669425605266,0.12309215510680578,20.965134008429267,84.32901805744388)" stroke-linecap="round" stroke-width="4" stroke="#1a1a1a"></line><line x1="40" y1="90" x2="50" y2="100" transform="matrix(0.06119822785006497,-0.24239384667934855,0.24239384667934855,0.06119822785006497,19.21866431220896,100.09389145481451)" stroke-linecap="round" stroke-width="4" stroke="#1a1a1a"></line><line x1="40" y1="100" x2="50" y2="110" transform="matrix(-0.011193572301335213,-0.24974928215939837,0.24974928215939837,-0.011193572301335213,19.280036126823255,117.41404278881312)" stroke-linecap="round" stroke-width="4" stroke="#1a1a1a"></line><line x1="40" y1="110" x2="50" y2="120" transform="matrix(-0.0862783472512914,-0.23464024973474942,0.23464024973474942,-0.0862783472512914,21.898896906811927,135.48082117196225)" stroke-linecap="round" stroke-width="4" stroke="#1a1a1a"></line><line x1="40" y1="120" x2="50" y2="130" transform="matrix(-0.15444571410597552,-0.19658718522399998,0.19658718522399998,-0.15444571410597552,27.376658981768898,153.15213759832693)" stroke-linecap="round" stroke-width="4" stroke="#1a1a1a"></line><line x1="40" y1="130" x2="50" y2="140" transform="matrix(-0.20701181402869612,-0.14016457773827354,0.14016457773827354,-0.20701181402869612,35.3933136366244,169.2540008920963)" stroke-linecap="round" stroke-width="4" stroke="#1a1a1a"></line><line x1="40" y1="140" x2="50" y2="150" transform="matrix(-0.23886434624415426,-0.07378227492665695,0.07378227492665695,-0.23886434624415426,45.05046571662169,182.95553257710193)" stroke-linecap="round" stroke-width="4" stroke="#1a1a1a"></line><line x1="40" y1="150" x2="50" y2="160" transform="matrix(-0.24990149344440418,-0.007017376593600672,0.007017376593600672,-0.24990149344440418,55.157873832990084,194.05051343059466)" stroke-linecap="round" stroke-width="4" stroke="#1a1a1a"></line><line x1="40" y1="160" x2="50" y2="170" transform="matrix(-0.2444898026365306,0.052199007718062136,-0.052199007718062136,-0.2444898026365306,64.61487739212413,202.99186208771476)" stroke-linecap="round" stroke-width="4" stroke="#1a1a1a"></line><line x1="40" y1="170" x2="50" y2="180" transform="matrix(-0.22946883129314372,0.0992172135516753,-0.0992172135516753,-0.22946883129314372,72.68910977973465,210.69227086647476)" stroke-linecap="round" stroke-width="4" stroke="#1a1a1a"></line><line x1="40" y1="180" x2="50" y2="190" transform="matrix(-0.2119430688995738,0.13259010349732187,-0.13259010349732187,-0.2119430688995738,79.06660724748536,218.24291308904168)" stroke-linecap="round" stroke-width="4" stroke="#1a1a1a"></line><line x1="40" y1="190" x2="50" y2="200" transform="matrix(-0.19799581483613923,0.15263570128699663,-0.15263570128699663,-0.19799581483613923,83.67377341859061,226.74057733513231)" stroke-linecap="round" stroke-width="4" stroke="#1a1a1a"></line><line x1="50" y1="0" x2="60" y2="10" transform="matrix(0.2364935674852622,-0.08106042522768879,0.08106042522768879,0.2364935674852622,41.58755166217213,8.275855550096573)" stroke-linecap="round" stroke-width="4" stroke="#1a1a1a"></line><line x1="50" y1="10" x2="60" y2="20" transform="matrix(0.23967644506328237,-0.07109994150368472,0.07109994150368472,0.23967644506328237,40.7512963989642,15.315350106753424)" stroke-linecap="round" stroke-width="4" stroke="#1a1a1a"></line><line x1="50" y1="20" x2="60" y2="30" transform="matrix(0.2411693357614619,-0.06585857186710968,0.06585857186710968,0.2411693357614619,40.089222236441856,22.592988058654484)" stroke-linecap="round" stroke-width="4" stroke="#1a1a1a"></line><line x1="50" y1="30" x2="60" y2="40" transform="matrix(0.2408116516392221,-0.06715466055896593,0.06715466055896593,0.2408116516392221,39.40494604027898,30.265098523370355)" stroke-linecap="round" stroke-width="4" stroke="#1a1a1a"></line><line x1="50" y1="40" x2="60" y2="50" transform="matrix(0.23795729706811306,-0.07665718995657092,0.07665718995657092,0.23795729706811306,38.46277511320809,38.508067079546315)" stroke-linecap="round" stroke-width="4" stroke="#1a1a1a"></line><line x1="50" y1="50" x2="60" y2="60" transform="matrix(0.23104239980364097,-0.09549559933826546,0.09549559933826546,0.23104239980364097,37.040410047195145,47.54492597440434)" stroke-linecap="round" stroke-width="4" stroke="#1a1a1a"></line><line x1="50" y1="60" x2="60" y2="70" transform="matrix(0.2173153726485233,-0.12358814186900557,0.12358814186900557,0.2173153726485233,35.014425282845856,57.671848580641296)" stroke-linecap="round" stroke-width="4" stroke="#1a1a1a"></line><line x1="50" y1="70" x2="60" y2="80" transform="matrix(0.19317559516871252,-0.15869212151588902,0.15869212151588902,0.19317559516871252,32.47343315202913,69.23989704572045)" stroke-linecap="round" stroke-width="4" stroke="#1a1a1a"></line><line x1="50" y1="80" x2="60" y2="90" transform="matrix(0.15546727663054535,-0.19578030007404087,0.19578030007404087,0.15546727663054535,29.80797427902653,82.5531979904759)" stroke-linecap="round" stroke-width="4" stroke="#1a1a1a"></line><line x1="50" y1="90" x2="60" y2="100" transform="matrix(0.10297545095384793,-0.2278070598134563,0.2278070598134563,0.10297545095384793,27.694679515260013,97.74672044912455)" stroke-linecap="round" stroke-width="4" stroke="#1a1a1a"></line><line x1="50" y1="100" x2="60" y2="110" transform="matrix(0.03765708060246259,-0.24714761637632607,0.24714761637632607,0.03765708060246259,26.97836084735032,114.63912543743936)" stroke-linecap="round" stroke-width="4" stroke="#1a1a1a"></line><line x1="50" y1="110" x2="60" y2="120" transform="matrix(-0.03493107690787663,-0.2475476113115536,0.2475476113115536,-0.03493107690787663,28.453233929104552,132.63219246654126)" stroke-linecap="round" stroke-width="4" stroke="#1a1a1a"></line><line x1="50" y1="120" x2="60" y2="130" transform="matrix(-0.10652134679892657,-0.22617073788654185,0.22617073788654185,-0.10652134679892657,32.587331838123234,150.75455893362562)" stroke-linecap="round" stroke-width="4" stroke="#1a1a1a"></line><line x1="50" y1="130" x2="60" y2="140" transform="matrix(-0.16826771200995466,-0.18489450260874432,0.18489450260874432,-0.16826771200995466,39.293966308367025,167.88533876482484)" stroke-linecap="round" stroke-width="4" stroke="#1a1a1a"></line><line x1="50" y1="140" x2="60" y2="150" transform="matrix(-0.21356116596334535,-0.12996779752067997,0.12996779752067997,-0.21356116596334535,47.9005334874854,183.11459792832247)" stroke-linecap="round" stroke-width="4" stroke="#1a1a1a"></line><line x1="50" y1="150" x2="60" y2="160" transform="matrix(-0.24001480027185784,-0.06994923623929131,0.06994923623929131,-0.24001480027185784,57.358682397862026,196.04950203529899)" stroke-linecap="round" stroke-width="4" stroke="#1a1a1a"></line><line x1="50" y1="160" x2="60" y2="170" transform="matrix(-0.24965966009469845,-0.01304048010617862,0.01304048010617862,-0.24965966009469845,66.57960208768894,206.91107032146508)" stroke-linecap="round" stroke-width="4" stroke="#1a1a1a"></line><line x1="50" y1="170" x2="60" y2="180" transform="matrix(-0.24755621361995508,0.0348700601971256,-0.0348700601971256,-0.24755621361995508,74.71785228359451,216.40448407265023)" stroke-linecap="round" stroke-width="4" stroke="#1a1a1a"></line><line x1="50" y1="180" x2="60" y2="190" transform="matrix(-0.23976818508795475,0.07078995281555336,-0.07078995281555336,-0.23976818508795475,81.28339145071489,225.4636668364162)" stroke-linecap="round" stroke-width="4" stroke="#1a1a1a"></line><line x1="50" y1="190" x2="60" y2="200" transform="matrix(-0.2317406025877771,0.09378855533727964,-0.09378855533727964,-0.2317406025877771,86.03450143309728,235.03104696106615)" stroke-linecap="round" stroke-width="4" stroke="#1a1a1a"></line><line x1="60" y1="0" x2="70" y2="10" transform="matrix(0.23052525627300877,-0.09673730521501844,0.09673730521501844,0.23052525627300877,49.53217181617934,10.135298557611154)" stroke-linecap="round" stroke-width="4" stroke="#1a1a1a"></line><line x1="60" y1="10" x2="70" y2="20" transform="matrix(0.23531718124018347,-0.08441459715697665,0.08441459715697665,0.23531718124018347,48.438164262033425,16.95719109660073)" stroke-linecap="round" stroke-width="4" stroke="#1a1a1a"></line><line x1="60" y1="20" x2="70" y2="30" transform="matrix(0.2382633769443919,-0.07570048353250206,0.07570048353250206,0.2382633769443919,47.62036841030198,23.963947006002837)" stroke-linecap="round" stroke-width="4" stroke="#1a1a1a"></line><line x1="60" y1="30" x2="70" y2="40" transform="matrix(0.23923833127093067,-0.07256046341293883,0.07256046341293883,0.23923833127093067,46.90989224793665,31.34308852735845)" stroke-linecap="round" stroke-width="4" stroke="#1a1a1a"></line><line x1="60" y1="40" x2="70" y2="50" transform="matrix(0.2378785702428625,-0.07690114315932853,0.07690114315932853,0.2378785702428625,46.077341492044155,39.294038644427545)" stroke-linecap="round" stroke-width="4" stroke="#1a1a1a"></line><line x1="60" y1="50" x2="70" y2="60" transform="matrix(0.2331519475719254,-0.09022288702661956,0.09022288702661956,0.2331519475719254,44.882864621360774,48.041130540274374)" stroke-linecap="round" stroke-width="4" stroke="#1a1a1a"></line><line x1="60" y1="60" x2="70" y2="70" transform="matrix(0.2229779203505822,-0.11305240836058919,0.11305240836058919,0.2229779203505822,43.15802863377386,57.854841720650455)" stroke-linecap="round" stroke-width="4" stroke="#1a1a1a"></line><line x1="60" y1="70" x2="70" y2="80" transform="matrix(0.20429204971919598,-0.14409982103226068,0.14409982103226068,0.20429204971919598,40.91353019083271,69.04458463815725)" stroke-linecap="round" stroke-width="4" stroke="#1a1a1a"></line><line x1="60" y1="80" x2="70" y2="90" transform="matrix(0.17395452243234516,-0.17955451574754316,0.17955451574754316,0.17395452243234516,38.4308222033564,81.88490911684097)" stroke-linecap="round" stroke-width="4" stroke="#1a1a1a"></line><line x1="60" y1="90" x2="70" y2="100" transform="matrix(0.129987409061536,-0.21354922965318537,0.21354922965318537,0.129987409061536,36.26364159394755,96.53189606661113)" stroke-linecap="round" stroke-width="4" stroke="#1a1a1a"></line><line x1="60" y1="100" x2="70" y2="110" transform="matrix(0.07278746054470045,-0.23916936590511267,0.23916936590511267,0.07278746054470045,35.15603164455764,112.90332542663877)" stroke-linecap="round" stroke-width="4" stroke="#1a1a1a"></line><line x1="60" y1="110" x2="70" y2="120" transform="matrix(0.005944540142615,-0.24992931489221676,0.24992931489221676,0.005944540142615,35.871733678125096,130.56178335159336)" stroke-linecap="round" stroke-width="4" stroke="#1a1a1a"></line><line x1="60" y1="120" x2="70" y2="130" transform="matrix(-0.06389857279480267,-0.24169603305554543,0.24169603305554543,-0.06389857279480267,38.941403099719,148.69756374796077)" stroke-linecap="round" stroke-width="4" stroke="#1a1a1a"></line><line x1="60" y1="130" x2="70" y2="140" transform="matrix(-0.1286687944196654,-0.214346311707456,0.214346311707456,-0.1286687944196654,44.426719556771694,166.30279750763947)" stroke-linecap="round" stroke-width="4" stroke="#1a1a1a"></line><line x1="60" y1="140" x2="70" y2="150" transform="matrix(-0.18139528167015376,-0.1720341587819279,0.1720341587819279,-0.18139528167015376,51.84574028518045,182.4845361629976)" stroke-linecap="round" stroke-width="4" stroke="#1a1a1a"></line><line x1="60" y1="150" x2="70" y2="160" transform="matrix(-0.2183241317942192,-0.1217972638292848,0.1217972638292848,-0.2183241317942192,60.3124926730851,196.7570625770075)" stroke-linecap="round" stroke-width="4" stroke="#1a1a1a"></line><line x1="60" y1="160" x2="70" y2="170" transform="matrix(-0.23962326794313127,-0.07127895524104091,0.07127895524104091,-0.23962326794313127,68.81448480153178,209.1709713012843)" stroke-linecap="round" stroke-width="4" stroke="#1a1a1a"></line><line x1="60" y1="170" x2="70" y2="180" transform="matrix(-0.2485663998367452,-0.026734712869213962,0.026734712869213962,-0.2485663998367452,76.478241237276,220.23687630792932)" stroke-linecap="round" stroke-width="4" stroke="#1a1a1a"></line><line x1="60" y1="180" x2="70" y2="190" transform="matrix(-0.24987531975831137,0.007894591546220207,-0.007894591546220207,-0.24987531975831137,82.70239522034097,230.71378570478328)" stroke-linecap="round" stroke-width="4" stroke="#1a1a1a"></line><line x1="60" y1="190" x2="70" y2="200" transform="matrix(-0.24809684491094453,0.030788886716390716,-0.030788886716390716,-0.24809684491094453,87.13012782890758,241.3776071210688)" stroke-linecap="round" stroke-width="4" stroke="#1a1a1a"></line><line x1="70" y1="0" x2="80" y2="10" transform="matrix(0.21526106272119228,-0.12713250912391735,0.12713250912391735,0.21526106272119228,58.219757750290995,13.45863287068784)" stroke-linecap="round" stroke-width="4" stroke="#1a1a1a"></line><line x1="70" y1="10" x2="80" y2="20" transform="matrix(0.22283224662712758,-0.1133392688484754,0.1133392688484754,0.22283224662712758,56.5874924702383,20.15796146422874)" stroke-linecap="round" stroke-width="4" stroke="#1a1a1a"></line><line x1="70" y1="20" x2="80" y2="30" transform="matrix(0.22835074317800477,-0.10176412968257975,0.10176412968257975,0.22835074317800477,55.32959101958515,26.92354114674336)" stroke-linecap="round" stroke-width="4" stroke="#1a1a1a"></line><line x1="70" y1="30" x2="80" y2="40" transform="matrix(0.23145791428524728,-0.09448404052919793,0.09448404052919793,0.23145791428524728,54.33371501008453,33.98527603970619)" stroke-linecap="round" stroke-width="4" stroke="#1a1a1a"></line><line x1="70" y1="40" x2="80" y2="50" transform="matrix(0.2318089701593207,-0.09361944965484026,0.09361944965484026,0.2318089701593207,53.40145200358313,41.59005506694359)" stroke-linecap="round" stroke-width="4" stroke="#1a1a1a"></line><line x1="70" y1="50" x2="80" y2="60" transform="matrix(0.2287019113716054,-0.10097245037620092,0.10097245037620092,0.2287019113716054,52.293871876438544,49.99432865277677)" stroke-linecap="round" stroke-width="4" stroke="#1a1a1a"></line><line x1="70" y1="60" x2="80" y2="70" transform="matrix(0.22066459754488907,-0.11750376755811763,0.11750376755811763,0.22066459754488907,50.812410292855674,59.46958372644103)" stroke-linecap="round" stroke-width="4" stroke="#1a1a1a"></line><line x1="70" y1="70" x2="80" y2="80" transform="matrix(0.20534565846817948,-0.1425943917139443,0.1425943917139443,0.20534565846817948,48.90449623634072,70.29365499343237)" stroke-linecap="round" stroke-width="4" stroke="#1a1a1a"></line><line x1="70" y1="80" x2="80" y2="90" transform="matrix(0.18009760956051768,-0.17339218849356317,0.17339218849356317,0.18009760956051768,46.7543432610083,82.69611732437323)" stroke-linecap="round" stroke-width="4" stroke="#1a1a1a"></line><line x1="70" y1="90" x2="80" y2="100" transform="matrix(0.14286881291087739,-0.20515482518682499,0.20515482518682499,0.14286881291087739,44.795130638935824,96.81407466247852)" stroke-linecap="round" stroke-width="4" stroke="#1a1a1a"></line><line x1="70" y1="100" x2="80" y2="110" transform="matrix(0.09324364697317707,-0.23196038950463402,0.23196038950463402,0.09324364697317707,43.65088557902515,112.60644628066396)" stroke-linecap="round" stroke-width="4" stroke="#1a1a1a"></line><line x1="70" y1="110" x2="80" y2="120" transform="matrix(0.03346792032055762,-0.24774966863634107,0.24774966863634107,0.03346792032055762,43.998694082778954,129.73241431086146)" stroke-linecap="round" stroke-width="4" stroke="#1a1a1a"></line><line x1="70" y1="120" x2="80" y2="130" transform="matrix(-0.031345259609573614,-0.24802716524608434,0.24802716524608434,-0.031345259609573614,46.347498814957476,147.52019484465302)" stroke-linecap="round" stroke-width="4" stroke="#1a1a1a"></line><line x1="70" y1="130" x2="80" y2="140" transform="matrix(-0.09437319909801756,-0.2315031301991529,0.2315031301991529,-0.09437319909801756,50.82506735546568,165.10311664316885)" stroke-linecap="round" stroke-width="4" stroke="#1a1a1a"></line><line x1="70" y1="140" x2="80" y2="150" transform="matrix(-0.14911737712567932,-0.20065893411248334,0.20065893411248334,-0.14911737712567932,57.088257838115865,181.67143974165975)" stroke-linecap="round" stroke-width="4" stroke="#1a1a1a"></line><line x1="70" y1="150" x2="80" y2="160" transform="matrix(-0.19133346019537273,-0.16090838079374772,0.16090838079374772,-0.19133346019537273,64.40921049162206,196.72481488981384)" stroke-linecap="round" stroke-width="4" stroke="#1a1a1a"></line><line x1="70" y1="160" x2="80" y2="170" transform="matrix(-0.2199529834353828,-0.11883048883966699,0.11883048883966699,-0.2199529834353828,71.88944309910866,210.2045289298132)" stroke-linecap="round" stroke-width="4" stroke="#1a1a1a"></line><line x1="70" y1="170" x2="80" y2="180" transform="matrix(-0.23672378126426635,-0.08038564165289581,0.08038564165289581,-0.23672378126426635,78.6867963055632,222.4555848452138)" stroke-linecap="round" stroke-width="4" stroke="#1a1a1a"></line><line x1="70" y1="180" x2="80" y2="190" transform="matrix(-0.24498175906523012,-0.049839118424241276,0.049839118424241276,-0.24498175906523012,84.15339502140762,234.05955930888567)" stroke-linecap="round" stroke-width="4" stroke="#1a1a1a"></line><line x1="70" y1="190" x2="80" y2="200" transform="matrix(-0.24824503835518116,-0.02957027108490272,0.02957027108490272,-0.24824503835518116,87.85217501508255,245.62555281062802)" stroke-linecap="round" stroke-width="4" stroke="#1a1a1a"></line><line x1="80" y1="0" x2="90" y2="10" transform="matrix(0.1844470158789638,-0.16875810597818783,0.16875810597818783,0.1844470158789638,68.47821312039713,18.422203928751145)" stroke-linecap="round" stroke-width="4" stroke="#1a1a1a"></line><line x1="80" y1="10" x2="90" y2="20" transform="matrix(0.1961270321856998,-0.1550296334448014,0.1550296334448014,0.1961270321856998,66.0037577625435,25.23561336002262)" stroke-linecap="round" stroke-width="4" stroke="#1a1a1a"></line><line x1="80" y1="20" x2="90" y2="30" transform="matrix(0.20583320907679536,-0.14188971083608654,0.14188971083608654,0.20583320907679536,63.95693445757023,31.914795194147473)" stroke-linecap="round" stroke-width="4" stroke="#1a1a1a"></line><line x1="80" y1="30" x2="90" y2="40" transform="matrix(0.2126858121670502,-0.13139537778339935,0.13139537778339935,0.2126858121670502,62.32286774338176,38.72460368574219)" stroke-linecap="round" stroke-width="4" stroke="#1a1a1a"></line><line x1="80" y1="40" x2="90" y2="50" transform="matrix(0.21603144086584516,-0.12581898329515637,0.12581898329515637,0.21603144086584516,60.97547327812113,45.97319874112526)" stroke-linecap="round" stroke-width="4" stroke="#1a1a1a"></line><line x1="80" y1="50" x2="90" y2="60" transform="matrix(0.21519976000660276,-0.12723624991762597,0.12723624991762597,0.21519976000660276,59.71002665396934,53.97909444263506)" stroke-linecap="round" stroke-width="4" stroke="#1a1a1a"></line><line x1="80" y1="60" x2="90" y2="70" transform="matrix(0.20913389356673728,-0.13697815359252222,0.13697815359252222,0.20913389356673728,58.32003906331339,63.04943997352647)" stroke-linecap="round" stroke-width="4" stroke="#1a1a1a"></line><line x1="80" y1="70" x2="90" y2="80" transform="matrix(0.19619515771733825,-0.15494340930891112,0.15494340930891112,0.19619515771733825,56.702655895857916,73.45555296245708)" stroke-linecap="round" stroke-width="4" stroke="#1a1a1a"></line><line x1="80" y1="80" x2="90" y2="90" transform="matrix(0.1744862185486713,-0.17903787179416905,0.17903787179416905,0.1744862185486713,54.950452320858574,85.3868905258673)" stroke-linecap="round" stroke-width="4" stroke="#1a1a1a"></line><line x1="80" y1="90" x2="90" y2="100" transform="matrix(0.14236223441604265,-0.20550667680654983,0.20550667680654983,0.14236223441604265,53.37607577801414,98.94365525903268)" stroke-linecap="round" stroke-width="4" stroke="#1a1a1a"></line><line x1="80" y1="100" x2="90" y2="110" transform="matrix(0.09926687686939945,-0.22944735160074411,0.22944735160074411,0.09926687686939945,52.47034354802291,114.08000281477631)" stroke-linecap="round" stroke-width="4" stroke="#1a1a1a"></line><line x1="80" y1="110" x2="90" y2="120" transform="matrix(0.04674111127836337,-0.24559167029128584,0.24559167029128584,0.04674111127836337,52.78396345784124,130.5000641777475)" stroke-linecap="round" stroke-width="4" stroke="#1a1a1a"></line><line x1="80" y1="120" x2="90" y2="130" transform="matrix(-0.01131593571877235,-0.2497437678878266,0.2497437678878266,-0.01131593571877235,54.743883550117324,147.64271223531182)" stroke-linecap="round" stroke-width="4" stroke="#1a1a1a"></line><line x1="80" y1="130" x2="90" y2="140" transform="matrix(-0.06940987345045986,-0.24017133356749956,0.24017133356749956,-0.06940987345045986,58.47670921167665,164.78489626904954)" stroke-linecap="round" stroke-width="4" stroke="#1a1a1a"></line><line x1="80" y1="140" x2="90" y2="150" transform="matrix(-0.12196611613708748,-0.21822984789994812,0.21822984789994812,-0.12196611613708748,63.72379192615996,181.23462391137326)" stroke-linecap="round" stroke-width="4" stroke="#1a1a1a"></line><line x1="80" y1="150" x2="90" y2="160" transform="matrix(-0.16490335651362295,-0.18790125867205087,0.18790125867205087,-0.16490335651362295,69.89209020949006,196.53162724673587)" stroke-linecap="round" stroke-width="4" stroke="#1a1a1a"></line><line x1="80" y1="160" x2="90" y2="170" transform="matrix(-0.19653619759677626,-0.15451059198061767,0.15451059198061767,-0.19653619759677626,76.21132911892407,210.56187292182057)" stroke-linecap="round" stroke-width="4" stroke="#1a1a1a"></line><line x1="80" y1="170" x2="90" y2="180" transform="matrix(-0.21749462609677706,-0.12327241223819359,0.12327241223819359,-0.21749462609677706,81.91437107654217,223.53971460718245)" stroke-linecap="round" stroke-width="4" stroke="#1a1a1a"></line><line x1="80" y1="180" x2="90" y2="190" transform="matrix(-0.2298796556688092,-0.09826160954100906,0.09826160954100906,-0.2298796556688092,86.3613729667621,235.87997310971548)" stroke-linecap="round" stroke-width="4" stroke="#1a1a1a"></line><line x1="80" y1="190" x2="90" y2="200" transform="matrix(-0.23616017544150328,-0.08202665137282149,0.08202665137282149,-0.23616017544150328,89.07841789482758,248.02349957778296)" stroke-linecap="round" stroke-width="4" stroke="#1a1a1a"></line><line x1="90" y1="0" x2="100" y2="10" transform="matrix(0.13117288601897484,-0.21282310488631875,0.21282310488631875,0.13117288601897484,81.4744603037658,24.56233053410541)" stroke-linecap="round" stroke-width="4" stroke="#1a1a1a"></line><line x1="90" y1="10" x2="100" y2="20" transform="matrix(0.14787343677784245,-0.20157739629112542,0.20157739629112542,0.14787343677784245,77.92836256173808,31.931751095989277)" stroke-linecap="round" stroke-width="4" stroke="#1a1a1a"></line><line x1="90" y1="20" x2="100" y2="30" transform="matrix(0.1633254330436375,-0.1892744116913543,0.1892744116913543,0.1633254330436375,74.75222356857057,38.89793328458772)" stroke-linecap="round" stroke-width="4" stroke="#1a1a1a"></line><line x1="90" y1="30" x2="100" y2="40" transform="matrix(0.1759044194954681,-0.17764468807696554,0.17764468807696554,0.1759044194954681,72.07151606523674,45.71959068497034)" stroke-linecap="round" stroke-width="4" stroke="#1a1a1a"></line><line x1="90" y1="40" x2="100" y2="50" transform="matrix(0.18431197676098948,-0.1689055807913299,0.1689055807913299,0.18431197676098948,69.88961107209616,52.751991220931814)" stroke-linecap="round" stroke-width="4" stroke="#1a1a1a"></line><line x1="90" y1="50" x2="100" y2="60" transform="matrix(0.18753921723795544,-0.16531497814104731,0.16531497814104731,0.18753921723795544,68.09145056463663,60.39026597531195)" stroke-linecap="round" stroke-width="4" stroke="#1a1a1a"></line><line x1="90" y1="60" x2="100" y2="70" transform="matrix(0.18463555770782691,-0.1685518045881435,0.1685518045881435,0.18463555770782691,66.50375471952711,69.01111018486489)" stroke-linecap="round" stroke-width="4" stroke="#1a1a1a"></line><line x1="90" y1="70" x2="100" y2="80" transform="matrix(0.17451979306199172,-0.17900514470148501,0.17900514470148501,0.17451979306199172,64.99523380649941,78.9165042669917)" stroke-linecap="round" stroke-width="4" stroke="#1a1a1a"></line><line x1="90" y1="80" x2="100" y2="90" transform="matrix(0.15610019957258348,-0.19527602949005188,0.19527602949005188,0.15610019957258348,63.57201853395016,90.28270583788533)" stroke-linecap="round" stroke-width="4" stroke="#1a1a1a"></line><line x1="90" y1="90" x2="100" y2="100" transform="matrix(0.12840675535663285,-0.2145033919983128,0.2145033919983128,0.12840675535663285,62.42353600128016,103.1791804809596)" stroke-linecap="round" stroke-width="4" stroke="#1a1a1a"></line><line x1="90" y1="100" x2="100" y2="110" transform="matrix(0.09122669902350433,-0.2327610134564527,0.2327610134564527,0.09122669902350433,61.893557179839554,117.53349288089505)" stroke-linecap="round" stroke-width="4" stroke="#1a1a1a"></line><line x1="90" y1="110" x2="100" y2="120" transform="matrix(0.04587638519751982,-0.24575466888994965,0.24575466888994965,0.04587638519751982,62.379956483891405,133.07090924683044)" stroke-linecap="round" stroke-width="4" stroke="#1a1a1a"></line><line x1="90" y1="120" x2="100" y2="130" transform="matrix(-0.004579350200668335,-0.24995805558481135,0.24995805558481135,-0.004579350200668335,64.19028132096207,149.3184340556406)" stroke-linecap="round" stroke-width="4" stroke="#1a1a1a"></line><line x1="90" y1="130" x2="100" y2="140" transform="matrix(-0.055813061864262374,-0.24369017650561137,0.24369017650561137,-0.055813061864262374,67.4040670488474,165.6853301197085)" stroke-linecap="round" stroke-width="4" stroke="#1a1a1a"></line><line x1="90" y1="140" x2="100" y2="150" transform="matrix(-0.10329698703394687,-0.22766144265050375,0.22766144265050375,-0.10329698703394687,71.8023045839019,181.60590017172015)" stroke-linecap="round" stroke-width="4" stroke="#1a1a1a"></line><line x1="90" y1="150" x2="100" y2="160" transform="matrix(-0.14347406764645956,-0.2047320002173064,0.2047320002173064,-0.14347406764645956,76.89657639273116,196.68802050584534)" stroke-linecap="round" stroke-width="4" stroke="#1a1a1a"></line><line x1="90" y1="160" x2="100" y2="170" transform="matrix(-0.17450458492682444,-0.17901997050473648,0.17901997050473648,-0.17450458492682444,82.0396404347668,210.800153710876)" stroke-linecap="round" stroke-width="4" stroke="#1a1a1a"></line><line x1="90" y1="170" x2="100" y2="180" transform="matrix(-0.19631278231564075,-0.1547943522855141,0.1547943522855141,-0.19631278231564075,86.5607026700209,224.06020037236098)" stroke-linecap="round" stroke-width="4" stroke="#1a1a1a"></line><line x1="90" y1="180" x2="100" y2="190" transform="matrix(-0.21003432553656906,-0.13559344414977642,0.13559344414977642,-0.21003432553656906,89.86847375826542,236.73772741849405)" stroke-linecap="round" stroke-width="4" stroke="#1a1a1a"></line><line x1="90" y1="190" x2="100" y2="200" transform="matrix(-0.21720838951179314,-0.12377607008502552,0.12377607008502552,-0.21720838951179314,91.49846333704038,249.11436261287707)" stroke-linecap="round" stroke-width="4" stroke="#1a1a1a"></line><line x1="100" y1="0" x2="110" y2="10" transform="matrix(0.05223612211448916,-0.2444818757013292,0.2444818757013292,0.05223612211448916,98.292797799472,30.40941633806712)" stroke-linecap="round" stroke-width="4" stroke="#1a1a1a"></line><line x1="100" y1="10" x2="110" y2="20" transform="matrix(0.07363341732869216,-0.23891027573651716,0.23891027573651716,0.07363341732869216,93.68483704443956,38.981077692403915)" stroke-linecap="round" stroke-width="4" stroke="#1a1a1a"></line><line x1="100" y1="20" x2="110" y2="30" transform="matrix(0.0953564144010394,-0.2310998793434935,0.2310998793434935,0.0953564144010394,89.21007950430352,46.88157697104083)" stroke-linecap="round" stroke-width="4" stroke="#1a1a1a"></line><line x1="100" y1="30" x2="110" y2="40" transform="matrix(0.11502968627742974,-0.22196434685533642,0.22196434685533642,0.11502968627742974,85.1531308009331,54.280217400100284)" stroke-linecap="round" stroke-width="4" stroke="#1a1a1a"></line><line x1="100" y1="40" x2="110" y2="50" transform="matrix(0.13049573375813417,-0.21323898206220682,0.21323898206220682,0.13049573375813417,81.70219376259661,61.51778509741568)" stroke-linecap="round" stroke-width="4" stroke="#1a1a1a"></line><line x1="100" y1="50" x2="110" y2="60" transform="matrix(0.14004717452481483,-0.207091257438879,0.207091257438879,0.14004717452481483,78.9050275157561,69.04198743221748)" stroke-linecap="round" stroke-width="4" stroke="#1a1a1a"></line><line x1="100" y1="60" x2="110" y2="70" transform="matrix(0.14244793778946963,-0.20544728038970822,0.20544728038970822,0.14244793778946963,76.68889330677466,77.31284848460383)" stroke-linecap="round" stroke-width="4" stroke="#1a1a1a"></line><line x1="100" y1="70" x2="110" y2="80" transform="matrix(0.13687058457765203,-0.20920430941395976,0.20920430941395976,0.13687058457765203,74.93826541329955,86.70115864514187)" stroke-linecap="round" stroke-width="4" stroke="#1a1a1a"></line><line x1="100" y1="80" x2="110" y2="90" transform="matrix(0.12287886974568142,-0.21771720963218286,0.21771720963218286,0.12287886974568142,73.59175585796791,97.41560308299628)" stroke-linecap="round" stroke-width="4" stroke="#1a1a1a"></line><line x1="100" y1="90" x2="110" y2="100" transform="matrix(0.10023879312266568,-0.229024418683492,0.229024418683492,0.10023879312266568,72.71760694718836,109.52487861511342)" stroke-linecap="round" stroke-width="4" stroke="#1a1a1a"></line><line x1="100" y1="100" x2="110" y2="110" transform="matrix(0.06929335618566997,-0.24020497661065615,0.24020497661065615,0.06929335618566997,72.50267505638575,122.94572014462355)" stroke-linecap="round" stroke-width="4" stroke="#1a1a1a"></line><line x1="100" y1="110" x2="110" y2="120" transform="matrix(0.03141727576757284,-0.24801805334157487,0.24801805334157487,0.03141727576757284,73.17910991012374,137.42890888759447)" stroke-linecap="round" stroke-width="4" stroke="#1a1a1a"></line><line x1="100" y1="120" x2="110" y2="130" transform="matrix(-0.010839541244991228,-0.24976489814543223,0.24976489814543223,-0.010839541244991228,74.91753956254504,152.5802569608943)" stroke-linecap="round" stroke-width="4" stroke="#1a1a1a"></line><line x1="100" y1="130" x2="110" y2="140" transform="matrix(-0.05406240089121994,-0.2440845280018318,0.2440845280018318,-0.05406240089121994,77.7251408133308,167.92729956050704)" stroke-linecap="round" stroke-width="4" stroke="#1a1a1a"></line><line x1="100" y1="140" x2="110" y2="150" transform="matrix(-0.09467768190708095,-0.23137877289998232,0.23137877289998232,-0.09467768190708095,81.39123452974607,183.02303503102488)" stroke-linecap="round" stroke-width="4" stroke="#1a1a1a"></line><line x1="100" y1="150" x2="110" y2="160" transform="matrix(-0.1297579505653271,-0.2136887321902728,0.2136887321902728,-0.1297579505653271,85.50283131986706,197.54979921760435)" stroke-linecap="round" stroke-width="4" stroke="#1a1a1a"></line><line x1="100" y1="160" x2="110" y2="170" transform="matrix(-0.157567310471362,-0.19409415929084886,0.19409415929084886,-0.157567310471362,89.51903131650295,211.37849295331387)" stroke-linecap="round" stroke-width="4" stroke="#1a1a1a"></line><line x1="100" y1="170" x2="110" y2="180" transform="matrix(-0.17763814259901858,-0.1759110294835737,0.1759110294835737,-0.17763814259901858,92.86757481327155,224.5573330506035)" stroke-linecap="round" stroke-width="4" stroke="#1a1a1a"></line><line x1="100" y1="180" x2="110" y2="190" transform="matrix(-0.19041844079178083,-0.16199017688251055,0.16199017688251055,-0.19041844079178083,95.02575355987253,237.23638011914306)" stroke-linecap="round" stroke-width="4" stroke="#1a1a1a"></line><line x1="100" y1="190" x2="110" y2="200" transform="matrix(-0.1967126355441446,-0.15428590025428943,0.15428590025428943,-0.1967126355441446,95.56907618254874,249.55898345780858)" stroke-linecap="round" stroke-width="4" stroke="#1a1a1a"></line><line x1="110" y1="0" x2="120" y2="10" transform="matrix(-0.04634554735970858,-0.245666624188002,0.245666624188002,-0.04634554735970858,119.10140482542647,33.483389518418775)" stroke-linecap="round" stroke-width="4" stroke="#1a1a1a"></line><line x1="110" y1="10" x2="120" y2="20" transform="matrix(-0.02256667953560515,-0.2489794067282218,0.2489794067282218,-0.02256667953560515,113.86047704567126,43.97113196677958)" stroke-linecap="round" stroke-width="4" stroke="#1a1a1a"></line><line x1="110" y1="20" x2="120" y2="30" transform="matrix(0.0037619373289864526,-0.24997169405261224,0.24997169405261224,0.0037619373289864526,108.31808485585125,53.65269638282575)" stroke-linecap="round" stroke-width="4" stroke="#1a1a1a"></line><line x1="110" y1="30" x2="120" y2="40" transform="matrix(0.029890624902652586,-0.24820666901380575,0.24820666901380575,0.029890624902652586,102.87534472071175,62.497595064994826)" stroke-linecap="round" stroke-width="4" stroke="#1a1a1a"></line><line x1="110" y1="40" x2="120" y2="50" transform="matrix(0.05290605529457841,-0.24433777708976362,0.24433777708976362,0.05290605529457841,97.92060367208413,70.71807187706679)" stroke-linecap="round" stroke-width="4" stroke="#1a1a1a"></line><line x1="110" y1="50" x2="120" y2="60" transform="matrix(0.07022051933477146,-0.23993557190286519,0.23993557190286519,0.07022051933477146,93.7281838218437,78.73046220541707)" stroke-linecap="round" stroke-width="4" stroke="#1a1a1a"></line><line x1="110" y1="60" x2="120" y2="70" transform="matrix(0.0799414377101566,-0.23687415759603905,0.23687415759603905,0.0799414377101566,90.40991441958946,87.04433467238431)" stroke-linecap="round" stroke-width="4" stroke="#1a1a1a"></line><line x1="110" y1="70" x2="120" y2="80" transform="matrix(0.08108007993551082,-0.23648682973402804,0.23648682973402804,0.08108007993551082,87.93927857736415,96.11497942424991)" stroke-linecap="round" stroke-width="4" stroke="#1a1a1a"></line><line x1="110" y1="80" x2="120" y2="90" transform="matrix(0.07350512078111651,-0.23894977970057532,0.23894977970057532,0.07350512078111651,86.23617983562269,106.23128939917126)" stroke-linecap="round" stroke-width="4" stroke="#1a1a1a"></line><line x1="110" y1="90" x2="120" y2="100" transform="matrix(0.05753567252382859,-0.24328922373839487,0.24328922373839487,0.05753567252382859,85.2709214046122,117.5123718401517)" stroke-linecap="round" stroke-width="4" stroke="#1a1a1a"></line><line x1="110" y1="100" x2="120" y2="110" transform="matrix(0.03400145438360946,-0.24767700963109057,0.24767700963109057,0.03400145438360946,85.0837467346204,129.9127033972964)" stroke-linecap="round" stroke-width="4" stroke="#1a1a1a"></line><line x1="110" y1="110" x2="120" y2="120" transform="matrix(0.004412733157293365,-0.24996105253835552,0.24996105253835552,0.004412733157293365,85.74701464500038,143.23805672882216)" stroke-linecap="round" stroke-width="4" stroke="#1a1a1a"></line><line x1="110" y1="120" x2="120" y2="130" transform="matrix(-0.028994763847539413,-0.24831291482608275,0.24831291482608275,-0.028994763847539413,87.2952834892067,157.18033068594195)" stroke-linecap="round" stroke-width="4" stroke="#1a1a1a"></line><line x1="110" y1="130" x2="120" y2="140" transform="matrix(-0.0634711146808019,-0.2418086383923794,0.2418086383923794,-0.0634711146808019,89.655012005321,171.37659389703188)" stroke-linecap="round" stroke-width="4" stroke="#1a1a1a"></line><line x1="110" y1="140" x2="120" y2="150" transform="matrix(-0.09620242002050068,-0.2307489856580071,0.2307489856580071,-0.09620242002050068,92.60467538194655,185.48548425364342)" stroke-linecap="round" stroke-width="4" stroke="#1a1a1a"></line><line x1="110" y1="150" x2="120" y2="160" transform="matrix(-0.12482786743828082,-0.2166056405332303,0.2166056405332303,-0.12482786743828082,95.78133047275159,199.25796811425502)" stroke-linecap="round" stroke-width="4" stroke="#1a1a1a"></line><line x1="110" y1="160" x2="120" y2="170" transform="matrix(-0.1478003106454661,-0.20163101986823287,0.20163101986823287,-0.1478003106454661,98.72791744597018,212.57461854134868)" stroke-linecap="round" stroke-width="4" stroke="#1a1a1a"></line><line x1="110" y1="170" x2="120" y2="180" transform="matrix(-0.16444871002117342,-0.18829928776384688,0.18829928776384688,-0.16444871002117342,100.95922629376174,225.43294234654775)" stroke-linecap="round" stroke-width="4" stroke="#1a1a1a"></line><line x1="110" y1="180" x2="120" y2="190" transform="matrix(-0.17475460306606208,-0.1787759175818239,0.1787759175818239,-0.17475460306606208,102.02323459995972,237.88883208913123)" stroke-linecap="round" stroke-width="4" stroke="#1a1a1a"></line><line x1="110" y1="190" x2="120" y2="200" transform="matrix(-0.17898292646045197,-0.1745425794345106,0.1745425794345106,-0.17898292646045197,101.54723355322241,249.97406729475685)" stroke-linecap="round" stroke-width="4" stroke="#1a1a1a"></line><line x1="120" y1="0" x2="130" y2="10" transform="matrix(-0.14644009757943782,-0.2026210695384977,0.2026210695384977,-0.14644009757943782,142.29190684973725,31.0598341802094)" stroke-linecap="round" stroke-width="4" stroke="#1a1a1a"></line><line x1="120" y1="10" x2="130" y2="20" transform="matrix(-0.12470629866101841,-0.2166756540875529,0.2166756540875529,-0.12470629866101841,137.33815252131402,43.95505124085939)" stroke-linecap="round" stroke-width="4" stroke="#1a1a1a"></line><line x1="120" y1="20" x2="130" y2="30" transform="matrix(-0.09826735502466365,-0.2298771996881307,0.2298771996881307,-0.09826735502466365,131.5364893858797,56.19133383663293)" stroke-linecap="round" stroke-width="4" stroke="#1a1a1a"></line><line x1="120" y1="30" x2="130" y2="40" transform="matrix(-0.06945202550965807,-0.24015914755138063,0.24015914755138063,-0.06945202550965807,125.27593302440894,67.45071433676061)" stroke-linecap="round" stroke-width="4" stroke="#1a1a1a"></line><line x1="120" y1="40" x2="130" y2="50" transform="matrix(-0.041364967925535186,-0.24655413082834254,0.24655413082834254,-0.041364967925535186,119.07568510341648,77.6806899101919)" stroke-linecap="round" stroke-width="4" stroke="#1a1a1a"></line><line x1="120" y1="50" x2="130" y2="60" transform="matrix(-0.017277854060273375,-0.24940223687664048,0.24940223687664048,-0.017277854060273375,113.44260872931895,87.1255615828951)" stroke-linecap="round" stroke-width="4" stroke="#1a1a1a"></line><line x1="120" y1="60" x2="130" y2="70" transform="matrix(0.00009496065361577236,-0.24999998196494788,0.24999998196494788,0.00009496065361577236,108.73813109057642,96.24382530313346)" stroke-linecap="round" stroke-width="4" stroke="#1a1a1a"></line><line x1="120" y1="70" x2="130" y2="80" transform="matrix(0.009197741245669598,-0.24983074581799916,0.24983074581799916,0.009197741245669598,105.11297640794136,105.53901263382468)" stroke-linecap="round" stroke-width="4" stroke="#1a1a1a"></line><line x1="120" y1="80" x2="130" y2="90" transform="matrix(0.009716009701086856,-0.24981112696493002,0.24981112696493002,0.009716009701086856,102.55155299534509,115.40053004602387)" stroke-linecap="round" stroke-width="4" stroke="#1a1a1a"></line><line x1="120" y1="90" x2="130" y2="100" transform="matrix(0.0020902949935907365,-0.2499912611809456,0.2499912611809456,0.0020902949935907365,100.98954331361132,126.05032962322707)" stroke-linecap="round" stroke-width="4" stroke="#1a1a1a"></line><line x1="120" y1="100" x2="130" y2="110" transform="matrix(-0.012669346110889988,-0.24967876895948216,0.24967876895948216,-0.012669346110889988,100.36739752311561,137.54012746157872)" stroke-linecap="round" stroke-width="4" stroke="#1a1a1a"></line><line x1="120" y1="110" x2="130" y2="120" transform="matrix(-0.033033300095948445,-0.24780799237468312,0.24780799237468312,-0.033033300095948445,100.631243388905,149.77482855786945)" stroke-linecap="round" stroke-width="4" stroke="#1a1a1a"></line><line x1="120" y1="120" x2="130" y2="130" transform="matrix(-0.05701683793583232,-0.243411339488938,0.243411339488938,-0.05701683793583232,101.70068730586179,162.5535221780963)" stroke-linecap="round" stroke-width="4" stroke="#1a1a1a"></line><line x1="120" y1="130" x2="130" y2="140" transform="matrix(-0.08235354027613939,-0.2360463818913272,0.2360463818913272,-0.08235354027613939,103.42793097918825,175.6235256736947)" stroke-linecap="round" stroke-width="4" stroke="#1a1a1a"></line><line x1="120" y1="140" x2="130" y2="150" transform="matrix(-0.10678556472545822,-0.226046108496176,0.226046108496176,-0.10678556472545822,105.57150985873676,188.73967044721343)" stroke-linecap="round" stroke-width="4" stroke="#1a1a1a"></line><line x1="120" y1="150" x2="130" y2="160" transform="matrix(-0.12838375351269293,-0.21451715976581479,0.21451715976581479,-0.12838375351269293,107.79780942538532,201.71412676519424)" stroke-linecap="round" stroke-width="4" stroke="#1a1a1a"></line><line x1="120" y1="160" x2="130" y2="170" transform="matrix(-0.14577107200585054,-0.2031029161934046,0.2031029161934046,-0.14577107200585054,109.70940282881956,214.44009140514092)" stroke-linecap="round" stroke-width="4" stroke="#1a1a1a"></line><line x1="120" y1="170" x2="130" y2="180" transform="matrix(-0.15816245647308572,-0.19360949708730527,0.19360949708730527,-0.15816245647308572,110.88864506885729,226.87961701870316)" stroke-linecap="round" stroke-width="4" stroke="#1a1a1a"></line><line x1="120" y1="180" x2="130" y2="190" transform="matrix(-0.16522422267086948,-0.18761917877127313,0.18761917877127313,-0.16522422267086948,110.94347976117315,239.01887854052)" stroke-linecap="round" stroke-width="4" stroke="#1a1a1a"></line><line x1="120" y1="190" x2="130" y2="200" transform="matrix(-0.1668406352010014,-0.18618324963789404,0.18618324963789404,-0.1668406352010014,109.54934572073584,250.80683006893202)" stroke-linecap="round" stroke-width="4" stroke="#1a1a1a"></line><line x1="130" y1="0" x2="140" y2="10" transform="matrix(-0.2219114604328455,-0.11513167995196481,0.11513167995196481,-0.2219114604328455,164.38238875867432,21.65233409567948)" stroke-linecap="round" stroke-width="4" stroke="#1a1a1a"></line><line x1="130" y1="10" x2="140" y2="20" transform="matrix(-0.20776344978780145,-0.1390480094509508,0.1390480094509508,-0.20776344978780145,160.96234557958894,36.88793302269538)" stroke-linecap="round" stroke-width="4" stroke="#1a1a1a"></line><line x1="130" y1="20" x2="140" y2="30" transform="matrix(-0.18783237380278095,-0.16498181521492716,0.16498181521492716,-0.18783237380278095,156.23282508300224,51.96835439908469)" stroke-linecap="round" stroke-width="4" stroke="#1a1a1a"></line><line x1="130" y1="30" x2="140" y2="40" transform="matrix(-0.163041604531308,-0.1895189573416247,0.1895189573416247,-0.163041604531308,150.37745310476973,66.29151539971511)" stroke-linecap="round" stroke-width="4" stroke="#1a1a1a"></line><line x1="130" y1="40" x2="140" y2="50" transform="matrix(-0.1357387444069304,-0.2099404517162665,0.2099404517162665,-0.1357387444069304,143.8774101677036,79.45020448000784)" stroke-linecap="round" stroke-width="4" stroke="#1a1a1a"></line><line x1="130" y1="50" x2="140" y2="60" transform="matrix(-0.10922257035491548,-0.22487870091466097,0.22487870091466097,-0.10922257035491548,137.37671844760723,91.36586599299957)" stroke-linecap="round" stroke-width="4" stroke="#1a1a1a"></line><line x1="130" y1="60" x2="140" y2="70" transform="matrix(-0.08680804917937882,-0.23444479648239275,0.23444479648239275,-0.08680804917937882,131.48017486786063,102.29257072178265)" stroke-linecap="round" stroke-width="4" stroke="#1a1a1a"></line><line x1="130" y1="70" x2="140" y2="80" transform="matrix(-0.07081792408923533,-0.23975992498266116,0.23975992498266116,-0.07081792408923533,126.57842537834719,112.67893417935191)" stroke-linecap="round" stroke-width="4" stroke="#1a1a1a"></line><line x1="130" y1="80" x2="140" y2="90" transform="matrix(-0.06222653535155903,-0.2421319026855841,0.2421319026855841,-0.06222653535155903,122.81937054418582,122.97706236743637)" stroke-linecap="round" stroke-width="4" stroke="#1a1a1a"></line><line x1="130" y1="90" x2="140" y2="100" transform="matrix(-0.061021332476803115,-0.2424384395733388,0.2424384395733388,-0.061021332476803115,120.20622812490123,133.52621592769702)" stroke-linecap="round" stroke-width="4" stroke="#1a1a1a"></line><line x1="130" y1="100" x2="140" y2="110" transform="matrix(-0.06645970471019096,-0.2410043726778297,0.2410043726778297,-0.06645970471019096,118.66660100470367,144.51385930607705)" stroke-linecap="round" stroke-width="4" stroke="#1a1a1a"></line><line x1="130" y1="110" x2="140" y2="120" transform="matrix(-0.0772564434097219,-0.2377634159236455,0.2377634159236455,-0.0772564434097219,118.08682702909323,155.98255214181017)" stroke-linecap="round" stroke-width="4" stroke="#1a1a1a"></line><line x1="130" y1="120" x2="140" y2="130" transform="matrix(-0.09174688832110542,-0.23255646300069713,0.23255646300069713,-0.09174688832110542,118.31627204826209,167.86348354523227)" stroke-linecap="round" stroke-width="4" stroke="#1a1a1a"></line><line x1="130" y1="130" x2="140" y2="140" transform="matrix(-0.10806832431604865,-0.22543566106435187,0.22543566106435187,-0.10806832431604865,119.15540953897907,180.02303802635407)" stroke-linecap="round" stroke-width="4" stroke="#1a1a1a"></line><line x1="130" y1="140" x2="140" y2="150" transform="matrix(-0.12437330787241295,-0.21686696449407408,0.21686696449407408,-0.12437330787241295,120.34468671113501,192.31116984819988)" stroke-linecap="round" stroke-width="4" stroke="#1a1a1a"></line><line x1="130" y1="150" x2="140" y2="160" transform="matrix(-0.1390392101211515,-0.20776933856776433,0.20776933856776433,-0.1390392101211515,121.56604588835198,204.59993827542667)" stroke-linecap="round" stroke-width="4" stroke="#1a1a1a"></line><line x1="130" y1="160" x2="140" y2="170" transform="matrix(-0.15081070655640336,-0.19938939487334426,0.19938939487334426,-0.15081070655640336,122.46019523101265,216.80133488970802)" stroke-linecap="round" stroke-width="4" stroke="#1a1a1a"></line><line x1="130" y1="170" x2="140" y2="180" transform="matrix(-0.1588278040785755,-0.19306405323513137,0.19306405323513137,-0.1588278040785755,122.65554423445971,228.85851290049345)" stroke-linecap="round" stroke-width="4" stroke="#1a1a1a"></line><line x1="130" y1="180" x2="140" y2="190" transform="matrix(-0.16254177090577793,-0.18994781575689046,0.18994781575689046,-0.16254177090577793,121.80279315725528,240.71318274474913)" stroke-linecap="round" stroke-width="4" stroke="#1a1a1a"></line><line x1="130" y1="190" x2="140" y2="200" transform="matrix(-0.16157474660926743,-0.19077107028622295,0.19077107028622295,-0.16157474660926743,119.61223208643763,252.26117007744725)" stroke-linecap="round" stroke-width="4" stroke="#1a1a1a"></line><line x1="140" y1="0" x2="150" y2="10" transform="matrix(-0.24999932450729698,-0.0005811590963046968,0.0005811590963046968,-0.24999932450729698,181.24699625807654,6.334264691500666)" stroke-linecap="round" stroke-width="4" stroke="#1a1a1a"></line><line x1="140" y1="10" x2="150" y2="20" transform="matrix(-0.2481564450418261,-0.03030476504121321,0.03030476504121321,-0.2481564450418261,180.5281130554466,23.11653760660331)" stroke-linecap="round" stroke-width="4" stroke="#1a1a1a"></line><line x1="140" y1="20" x2="150" y2="30" transform="matrix(-0.2412763712323207,-0.06546535484485946,0.06546535484485946,-0.2412763712323207,178.348439957565,40.52438573331264)" stroke-linecap="round" stroke-width="4" stroke="#1a1a1a"></line><line x1="140" y1="30" x2="150" y2="40" transform="matrix(-0.22815195892846543,-0.10220901935300929,0.10220901935300929,-0.22815195892846543,174.50471836727215,57.80562636868264)" stroke-linecap="round" stroke-width="4" stroke="#1a1a1a"></line><line x1="140" y1="40" x2="150" y2="50" transform="matrix(-0.20940032365877223,-0.13657051091506334,0.13657051091506334,-0.20940032365877223,169.21737393934413,74.22573864732894)" stroke-linecap="round" stroke-width="4" stroke="#1a1a1a"></line><line x1="140" y1="50" x2="150" y2="60" transform="matrix(-0.18740384728734785,-0.16546842001391204,0.16546842001391204,-0.18740384728734785,163.07279475590028,89.30013250282138)" stroke-linecap="round" stroke-width="4" stroke="#1a1a1a"></line><line x1="140" y1="60" x2="150" y2="70" transform="matrix(-0.16544731913002356,-0.18742247622067143,0.18742247622067143,-0.16544731913002356,156.80740031950978,102.93033479544889)" stroke-linecap="round" stroke-width="4" stroke="#1a1a1a"></line><line x1="140" y1="70" x2="150" y2="80" transform="matrix(-0.146456961530487,-0.2026088804057153,0.2026088804057153,-0.146456961530487,151.04059339149197,115.36255977361525)" stroke-linecap="round" stroke-width="4" stroke="#1a1a1a"></line><line x1="140" y1="80" x2="150" y2="90" transform="matrix(-0.1323107845669082,-0.2121175529919417,0.2121175529919417,-0.1323107845669082,146.15507175788665,127.00346187201875)" stroke-linecap="round" stroke-width="4" stroke="#1a1a1a"></line><line x1="140" y1="90" x2="150" y2="100" transform="matrix(-0.12385430937129821,-0.2171637862309431,0.2171637862309431,-0.12385430937129821,142.32831516689865,138.25490839376008)" stroke-linecap="round" stroke-width="4" stroke="#1a1a1a"></line><line x1="140" y1="100" x2="150" y2="110" transform="matrix(-0.12104426646484774,-0.21874250971401726,0.21874250971401726,-0.12104426646484774,139.5834551174311,149.42731188734152)" stroke-linecap="round" stroke-width="4" stroke="#1a1a1a"></line><line x1="140" y1="110" x2="150" y2="120" transform="matrix(-0.12315953708998467,-0.21755856320490052,0.21755856320490052,-0.12315953708998467,137.8388981094842,160.7093384300588)" stroke-linecap="round" stroke-width="4" stroke="#1a1a1a"></line><line x1="140" y1="120" x2="150" y2="130" transform="matrix(-0.12901906756229609,-0.21413565841623783,0.21413565841623783,-0.12901906756229609,136.9408074945032,172.1770539156415)" stroke-linecap="round" stroke-width="4" stroke="#1a1a1a"></line><line x1="140" y1="130" x2="150" y2="140" transform="matrix(-0.13718958511203086,-0.20899525768971133,0.20899525768971133,-0.13718958511203086,136.67813005313346,183.82490635513233)" stroke-linecap="round" stroke-width="4" stroke="#1a1a1a"></line><line x1="140" y1="140" x2="150" y2="150" transform="matrix(-0.14618073374311807,-0.20280826679976244,0.20280826679976244,-0.14618073374311807,136.78900770678658,195.60340507871769)" stroke-linecap="round" stroke-width="4" stroke="#1a1a1a"></line><line x1="140" y1="150" x2="150" y2="160" transform="matrix(-0.15461263172796172,-0.1964559342706493,0.1964559342706493,-0.15461263172796172,136.9681617886038,207.4510683870782)" stroke-linecap="round" stroke-width="4" stroke="#1a1a1a"></line><line x1="140" y1="160" x2="150" y2="170" transform="matrix(-0.16132762301620795,-0.19098009857558534,0.19098009857558534,-0.16132762301620795,136.88078907237858,219.31117209113418)" stroke-linecap="round" stroke-width="4" stroke="#1a1a1a"></line><line x1="140" y1="170" x2="150" y2="180" transform="matrix(-0.16542381470072262,-0.18744322214969786,0.18744322214969786,-0.16542381470072262,136.18388925540765,231.12843478433265)" stroke-linecap="round" stroke-width="4" stroke="#1a1a1a"></line><line x1="140" y1="180" x2="150" y2="190" transform="matrix(-0.16621458377423742,-0.18674236836014746,0.18674236836014746,-0.16621458377423742,134.55377650063716,242.8273414104553)" stroke-linecap="round" stroke-width="4" stroke="#1a1a1a"></line><line x1="140" y1="190" x2="150" y2="200" transform="matrix(-0.1631513793882317,-0.18942446358302636,0.18942446358302636,-0.1631513793882317,131.71917961260345,254.281066200244)" stroke-linecap="round" stroke-width="4" stroke="#1a1a1a"></line><line x1="150" y1="0" x2="160" y2="10" transform="matrix(-0.22335939629027995,0.11229683917564941,-0.11229683917564941,-0.22335939629027995,190.18219062087164,-11.289213090774258)" stroke-linecap="round" stroke-width="4" stroke="#1a1a1a"></line><line x1="150" y1="10" x2="160" y2="20" transform="matrix(-0.23584624087243547,0.08292497010153904,-0.08292497010153904,-0.23584624087243547,192.8000418867506,5.6843232473479794)" stroke-linecap="round" stroke-width="4" stroke="#1a1a1a"></line><line x1="150" y1="20" x2="160" y2="30" transform="matrix(-0.24585938371696758,0.04531184655598237,-0.04531184655598237,-0.24585938371696758,194.24100064002954,24.123148376746922)" stroke-linecap="round" stroke-width="4" stroke="#1a1a1a"></line><line x1="150" y1="30" x2="160" y2="40" transform="matrix(-0.24998721337448576,0.002528467769089802,-0.002528467769089802,-0.24998721337448576,193.83651444496343,43.35763996389808)" stroke-linecap="round" stroke-width="4" stroke="#1a1a1a"></line><line x1="150" y1="40" x2="160" y2="50" transform="matrix(-0.2465747137247372,-0.04124209683762334,0.04124209683762334,-0.2465747137247372,191.3631862696412,62.48838712744479)" stroke-linecap="round" stroke-width="4" stroke="#1a1a1a"></line><line x1="150" y1="50" x2="160" y2="60" transform="matrix(-0.23624687999323873,-0.0817765962452599,0.0817765962452599,-0.23624687999323873,187.1205536054627,80.66895081764342)" stroke-linecap="round" stroke-width="4" stroke="#1a1a1a"></line><line x1="150" y1="60" x2="160" y2="70" transform="matrix(-0.22143462452713167,-0.11604614194590104,0.11604614194590104,-0.22143462452713167,181.77936757522184,97.38040259587822)" stroke-linecap="round" stroke-width="4" stroke="#1a1a1a"></line><line x1="150" y1="70" x2="160" y2="80" transform="matrix(-0.2051525077352789,-0.14287214063604675,0.14287214063604675,-0.2051525077352789,176.08322815126473,112.53161987873317)" stroke-linecap="round" stroke-width="4" stroke="#1a1a1a"></line><line x1="150" y1="80" x2="160" y2="90" transform="matrix(-0.19002300814505807,-0.1624538592200973,0.1624538592200973,-0.19002300814505807,170.64498822877573,126.33230387144502)" stroke-linecap="round" stroke-width="4" stroke="#1a1a1a"></line><line x1="150" y1="90" x2="160" y2="100" transform="matrix(-0.17785895698098664,-0.1756877668525488,0.1756877668525488,-0.17785895698098664,165.8778004810608,139.1282047753388)" stroke-linecap="round" stroke-width="4" stroke="#1a1a1a"></line><line x1="150" y1="100" x2="160" y2="110" transform="matrix(-0.16956231831323054,-0.1837079753528482,0.1837079753528482,-0.16956231831323054,161.99282192650168,151.27877960258067)" stroke-linecap="round" stroke-width="4" stroke="#1a1a1a"></line><line x1="150" y1="110" x2="160" y2="120" transform="matrix(-0.16522902966278277,-0.18761494545130258,0.18761494545130258,-0.16522902966278277,159.03478087083153,163.08165495617192)" stroke-linecap="round" stroke-width="4" stroke="#1a1a1a"></line><line x1="150" y1="120" x2="160" y2="130" transform="matrix(-0.16434461857133142,-0.18839014397426312,0.18839014397426312,-0.16434461857133142,156.92464788177347,174.7435496374272)" stroke-linecap="round" stroke-width="4" stroke="#1a1a1a"></line><line x1="150" y1="130" x2="160" y2="140" transform="matrix(-0.1659998380347852,-0.18693328695667094,0.18693328695667094,-0.1659998380347852,155.49398115624115,186.38463761298)" stroke-linecap="round" stroke-width="4" stroke="#1a1a1a"></line><line x1="150" y1="140" x2="160" y2="150" transform="matrix(-0.16909190013958336,-0.18414105817873744,0.18414105817873744,-0.16909190013958336,154.50879108571849,198.0601895379439)" stroke-linecap="round" stroke-width="4" stroke="#1a1a1a"></line><line x1="150" y1="150" x2="160" y2="160" transform="matrix(-0.17249166177003192,-0.18096029017387463,0.18096029017387463,-0.17249166177003192,153.6873625974044,209.7850525513055)" stroke-linecap="round" stroke-width="4" stroke="#1a1a1a"></line><line x1="150" y1="160" x2="160" y2="170" transform="matrix(-0.17516007926589852,-0.17837866080774387,0.17837866080774387,-0.17516007926589852,152.71733325293653,221.55010550407354)" stroke-linecap="round" stroke-width="4" stroke="#1a1a1a"></line><line x1="150" y1="170" x2="160" y2="180" transform="matrix(-0.17620303940227963,-0.17734849563895005,0.17734849563895005,-0.17620303940227963,151.27548437053707,233.3245487194362)" stroke-linecap="round" stroke-width="4" stroke="#1a1a1a"></line><line x1="150" y1="180" x2="160" y2="190" transform="matrix(-0.17486937394291688,-0.1786636562281549,0.1786636562281549,-0.17486937394291688,149.05197655894347,245.04370089480364)" stroke-linecap="round" stroke-width="4" stroke="#1a1a1a"></line><line x1="150" y1="190" x2="160" y2="200" transform="matrix(-0.17051825216367136,-0.18282102088941138,0.18282102088941138,-0.17051825216367136,145.78023001193384,256.5883174097747)" stroke-linecap="round" stroke-width="4" stroke="#1a1a1a"></line><line x1="160" y1="0" x2="170" y2="10" transform="matrix(-0.15378383225975045,0.19710538535388863,-0.19710538535388863,-0.15378383225975045,191.35985924962827,-26.753469422092873)" stroke-linecap="round" stroke-width="4" stroke="#1a1a1a"></line><line x1="160" y1="10" x2="170" y2="20" transform="matrix(-0.17927829900826225,0.17423917901753358,-0.17423917901753358,-0.17927829900826225,197.1945070216263,-11.060290052769105)" stroke-linecap="round" stroke-width="4" stroke="#1a1a1a"></line><line x1="160" y1="20" x2="170" y2="30" transform="matrix(-0.20592376215858102,0.141758259648093,-0.141758259648093,-0.20592376215858102,202.5213772473682,6.757981212029179)" stroke-linecap="round" stroke-width="4" stroke="#1a1a1a"></line><line x1="160" y1="30" x2="170" y2="40" transform="matrix(-0.22872043327139435,0.10093048798131138,-0.10093048798131138,-0.22872043327139435,206.27143856912596,26.351684647582424)" stroke-linecap="round" stroke-width="4" stroke="#1a1a1a"></line><line x1="160" y1="40" x2="170" y2="50" transform="matrix(-0.2438676861533956,0.05503227825730041,-0.05503227825730041,-0.2438676861533956,207.71462073688878,46.89371996444824)" stroke-linecap="round" stroke-width="4" stroke="#1a1a1a"></line><line x1="160" y1="50" x2="170" y2="60" transform="matrix(-0.24985558683684359,0.008496218359747908,-0.008496218359747908,-0.24985558683684359,206.69346383786532,67.340181246668)" stroke-linecap="round" stroke-width="4" stroke="#1a1a1a"></line><line x1="160" y1="60" x2="170" y2="70" transform="matrix(-0.24759362454142733,-0.0346034259349954,0.0346034259349954,-0.24759362454142733,203.6037253635608,86.80315087446702)" stroke-linecap="round" stroke-width="4" stroke="#1a1a1a"></line><line x1="160" y1="70" x2="170" y2="80" transform="matrix(-0.23950801595741691,-0.0716652655903941,0.0716652655903941,-0.23950801595741691,199.14392771369424,104.78787001922129)" stroke-linecap="round" stroke-width="4" stroke="#1a1a1a"></line><line x1="160" y1="80" x2="170" y2="90" transform="matrix(-0.22844842754385875,-0.10154465004488575,0.10154465004488575,-0.22844842754385875,194.0626952909214,121.17298359863415)" stroke-linecap="round" stroke-width="4" stroke="#1a1a1a"></line><line x1="160" y1="90" x2="170" y2="100" transform="matrix(-0.21694736324828642,-0.12423301324372704,0.12423301324372704,-0.21694736324828642,188.99417867781318,136.10844669380216)" stroke-linecap="round" stroke-width="4" stroke="#1a1a1a"></line><line x1="160" y1="100" x2="170" y2="110" transform="matrix(-0.20682409259323797,-0.14044142808652912,0.14044142808652912,-0.20682409259323797,184.3796253287987,149.88936535656728)" stroke-linecap="round" stroke-width="4" stroke="#1a1a1a"></line><line x1="160" y1="110" x2="170" y2="120" transform="matrix(-0.1990803543230792,-0.1512184265312837,0.1512184265312837,-0.1990803543230792,180.45813941221044,162.84528112481593)" stroke-linecap="round" stroke-width="4" stroke="#1a1a1a"></line><line x1="160" y1="120" x2="170" y2="130" transform="matrix(-0.1939854740177364,-0.15770109660403164,0.15770109660403164,-0.1939854740177364,177.29496613742253,175.26886519188227)" stroke-linecap="round" stroke-width="4" stroke="#1a1a1a"></line><line x1="160" y1="130" x2="170" y2="140" transform="matrix(-0.1912518865770536,-0.16100532873392057,0.16100532873392057,-0.1912518865770536,174.82084190613458,187.38488392899913)" stroke-linecap="round" stroke-width="4" stroke="#1a1a1a"></line><line x1="160" y1="140" x2="170" y2="150" transform="matrix(-0.19023275566042208,-0.1622081954583126,0.1622081954583126,-0.19023275566042208,172.8682163425143,199.34810182138278)" stroke-linecap="round" stroke-width="4" stroke="#1a1a1a"></line><line x1="160" y1="150" x2="170" y2="160" transform="matrix(-0.1901015029059507,-0.16236199861081663,0.16236199861081663,-0.1901015029059507,171.2006381948053,211.2554627212071)" stroke-linecap="round" stroke-width="4" stroke="#1a1a1a"></line><line x1="160" y1="160" x2="170" y2="170" transform="matrix(-0.18999022988974684,-0.1624921922630166,0.1624921922630166,-0.18999022988974684,169.5371762084105,223.15959965520597)" stroke-linecap="round" stroke-width="4" stroke="#1a1a1a"></line><line x1="160" y1="170" x2="170" y2="180" transform="matrix(-0.1890755719162981,-0.1635555810864453,0.1635555810864453,-0.1890755719162981,167.57524267606127,235.07489596461562)" stroke-linecap="round" stroke-width="4" stroke="#1a1a1a"></line><line x1="160" y1="180" x2="170" y2="190" transform="matrix(-0.18661365318741363,-0.16635908284204895,0.16635908284204895,-0.18661365318741363,165.01482245014418,246.9727745086096)" stroke-linecap="round" stroke-width="4" stroke="#1a1a1a"></line><line x1="160" y1="190" x2="170" y2="200" transform="matrix(-0.1819418767323125,-0.1714559812054511,0.1714559812054511,-0.1819418767323125,161.5864933257686,258.7689028617004)" stroke-linecap="round" stroke-width="4" stroke="#1a1a1a"></line><line x1="170" y1="0" x2="180" y2="10" transform="matrix(-0.06485160317850444,0.24144206254333106,-0.24144206254333106,-0.06485160317850444,187.55624086895494,-36.92810292919041)" stroke-linecap="round" stroke-width="4" stroke="#1a1a1a"></line><line x1="170" y1="10" x2="180" y2="20" transform="matrix(-0.09961377740963391,0.22929695887687632,-0.22929695887687632,-0.09961377740963391,195.8718654298391,-23.632761142308844)" stroke-linecap="round" stroke-width="4" stroke="#1a1a1a"></line><line x1="170" y1="20" x2="180" y2="30" transform="matrix(-0.139201569924652,0.20766059551708943,-0.20766059551708943,-0.139201569924652,204.55178962474133,-7.860564967374351)" stroke-linecap="round" stroke-width="4" stroke="#1a1a1a"></line><line x1="170" y1="30" x2="180" y2="40" transform="matrix(-0.17799059055875377,0.17555440658823143,-0.17555440658823143,-0.17799059055875377,212.29275757837001,10.507649516615885)" stroke-linecap="round" stroke-width="4" stroke="#1a1a1a"></line><line x1="170" y1="40" x2="180" y2="50" transform="matrix(-0.21068379016436545,0.13458209599340334,-0.13458209599340334,-0.21068379016436545,217.9258575984671,30.92890375855086)" stroke-linecap="round" stroke-width="4" stroke="#1a1a1a"></line><line x1="170" y1="50" x2="180" y2="60" transform="matrix(-0.23381291437693472,0.08849588165877659,-0.08849588165877659,-0.23381291437693472,220.78453350719627,52.372931000445504)" stroke-linecap="round" stroke-width="4" stroke="#1a1a1a"></line><line x1="170" y1="60" x2="180" y2="70" transform="matrix(-0.2464970861784972,0.0417035550704077,-0.0417035550704077,-0.2464970861784972,220.8477211608135,73.72418846428097)" stroke-linecap="round" stroke-width="4" stroke="#1a1a1a"></line><line x1="170" y1="70" x2="180" y2="80" transform="matrix(-0.24999169453178313,-0.002037808903608923,0.002037808903608923,-0.24999169453178313,218.5957108752914,94.1059936480153)" stroke-linecap="round" stroke-width="4" stroke="#1a1a1a"></line><line x1="170" y1="80" x2="180" y2="90" transform="matrix(-0.24675330330452122,-0.04015977226413211,0.04015977226413211,-0.24675330330452122,214.76824743583998,113.00199092710741)" stroke-linecap="round" stroke-width="4" stroke="#1a1a1a"></line><line x1="170" y1="90" x2="180" y2="100" transform="matrix(-0.23958058874674376,-0.07142227590719606,0.07142227590719606,-0.23958058874674376,210.14148681949652,130.25905421469997)" stroke-linecap="round" stroke-width="4" stroke="#1a1a1a"></line><line x1="170" y1="100" x2="180" y2="110" transform="matrix(-0.23096091113315706,-0.09569251553043175,0.09569251553043175,-0.23096091113315706,205.37044531760716,145.99708588680704)" stroke-linecap="round" stroke-width="4" stroke="#1a1a1a"></line><line x1="170" y1="110" x2="180" y2="120" transform="matrix(-0.22271353071994165,-0.11357237003011608,0.11357237003011608,-0.22271353071994165,200.91404532252645,160.4872207880636)" stroke-linecap="round" stroke-width="4" stroke="#1a1a1a"></line><line x1="170" y1="120" x2="180" y2="130" transform="matrix(-0.21589630682110508,-0.1260507227309993,0.1260507227309993,-0.21589630682110508,197.02551335231848,174.045914830563)" stroke-linecap="round" stroke-width="4" stroke="#1a1a1a"></line><line x1="170" y1="130" x2="180" y2="140" transform="matrix(-0.21088580100096418,-0.13426533035814467,0.13426533035814467,-0.21088580100096418,193.7791955768192,186.9660159478055)" stroke-linecap="round" stroke-width="4" stroke="#1a1a1a"></line><line x1="170" y1="140" x2="180" y2="150" transform="matrix(-0.20754140838951846,-0.1393792086492642,0.1393792086492642,-0.20754140838951846,191.10976121402243,199.4848657301014)" stroke-linecap="round" stroke-width="4" stroke="#1a1a1a"></line><line x1="170" y1="150" x2="180" y2="160" transform="matrix(-0.2053885669976821,-0.14253258064961377,0.14253258064961377,-0.2053885669976821,188.85044922390423,211.77842949832313)" stroke-linecap="round" stroke-width="4" stroke="#1a1a1a"></line><line x1="170" y1="160" x2="180" y2="170" transform="matrix(-0.20378099317067583,-0.14482163796329942,0.14482163796329942,-0.20378099317067583,186.76610354092387,223.9676505167389)" stroke-linecap="round" stroke-width="4" stroke="#1a1a1a"></line><line x1="170" y1="170" x2="180" y2="180" transform="matrix(-0.2020205395871066,-0.14726744916964607,0.14726744916964607,-0.2020205395871066,184.5817908230556,236.12539803243172)" stroke-linecap="round" stroke-width="4" stroke="#1a1a1a"></line><line x1="170" y1="180" x2="180" y2="190" transform="matrix(-0.1994285152267046,-0.15075897092535506,0.15075897092535506,-0.1994285152267046,182.00958054348263,248.2770952288775)" stroke-linecap="round" stroke-width="4" stroke="#1a1a1a"></line><line x1="170" y1="190" x2="180" y2="200" transform="matrix(-0.19537740199751996,-0.15597330152529143,0.15597330152529143,-0.19537740199751996,178.77625155213417,260.3939211564424)" stroke-linecap="round" stroke-width="4" stroke="#1a1a1a"></line><line x1="180" y1="0" x2="190" y2="10" transform="matrix(0.02030559093066299,0.24917400140656043,-0.24917400140656043,0.02030559093066299,182.48933568486015,-41.19871821486699)" stroke-linecap="round" stroke-width="4" stroke="#1a1a1a"></line><line x1="180" y1="10" x2="190" y2="20" transform="matrix(-0.019383394173997405,0.24924743535349655,-0.24924743535349655,-0.019383394173997405,192.32463945249197,-30.820024627786907)" stroke-linecap="round" stroke-width="4" stroke="#1a1a1a"></line><line x1="180" y1="20" x2="190" y2="30" transform="matrix(-0.06691004670135159,0.24087973275147692,-0.24087973275147692,-0.06691004670135159,203.40035195853696,-17.88999939148944)" stroke-linecap="round" stroke-width="4" stroke="#1a1a1a"></line><line x1="180" y1="30" x2="190" y2="40" transform="matrix(-0.11687095557786424,0.22100040665645138,-0.22100040665645138,-0.11687095557786424,214.35614101488068,-1.7945917862182554)" stroke-linecap="round" stroke-width="4" stroke="#1a1a1a"></line><line x1="180" y1="40" x2="190" y2="50" transform="matrix(-0.16325714018187762,0.1893333203100679,-0.1893333203100679,-0.16325714018187762,223.72257034760042,17.319907050821932)" stroke-linecap="round" stroke-width="4" stroke="#1a1a1a"></line><line x1="180" y1="50" x2="190" y2="60" transform="matrix(-0.20117104284500137,0.1484257778172465,-0.1484257778172465,-0.20117104284500137,230.3800607062738,38.605638460284474)" stroke-linecap="round" stroke-width="4" stroke="#1a1a1a"></line><line x1="180" y1="60" x2="190" y2="70" transform="matrix(-0.22805042156631603,0.10243537095859781,-0.10243537095859781,-0.22805042156631603,233.84762710207733,60.87273377446995)" stroke-linecap="round" stroke-width="4" stroke="#1a1a1a"></line><line x1="180" y1="70" x2="190" y2="80" transform="matrix(-0.24368462375881858,0.055837300646817044,-0.055837300646817044,-0.24368462375881858,234.2694529438927,82.94644616225024)" stroke-linecap="round" stroke-width="4" stroke="#1a1a1a"></line><line x1="180" y1="80" x2="190" y2="90" transform="matrix(-0.24969184473185205,0.012408975558227573,-0.012408975558227573,-0.24969184473185205,232.24775419784197,103.92814632393532)" stroke-linecap="round" stroke-width="4" stroke="#1a1a1a"></line><line x1="180" y1="90" x2="190" y2="100" transform="matrix(-0.2487119640026435,-0.025344801477773845,0.025344801477773845,-0.2487119640026435,228.60395720010052,123.31642485363929)" stroke-linecap="round" stroke-width="4" stroke="#1a1a1a"></line><line x1="180" y1="100" x2="190" y2="110" transform="matrix(-0.2435872564236043,-0.05626054130579666,0.05626054130579666,-0.2435872564236043,224.15628560125813,140.98486206605082)" stroke-linecap="round" stroke-width="4" stroke="#1a1a1a"></line><line x1="180" y1="110" x2="190" y2="120" transform="matrix(-0.23676791642911776,-0.08025555276623732,0.08025555276623732,-0.23676791642911776,219.5726759712695,157.07558765110244)" stroke-linecap="round" stroke-width="4" stroke="#1a1a1a"></line><line x1="180" y1="120" x2="190" y2="130" transform="matrix(-0.23001101941287583,-0.09795371840134327,0.09795371840134327,-0.23001101941287583,215.3078237912141,171.87281533085797)" stroke-linecap="round" stroke-width="4" stroke="#1a1a1a"></line><line x1="180" y1="130" x2="190" y2="140" transform="matrix(-0.22432578819617963,-0.11035370745997959,0.11035370745997959,-0.22432578819617963,211.602520309196,185.69941728658046)" stroke-linecap="round" stroke-width="4" stroke="#1a1a1a"></line><line x1="180" y1="140" x2="190" y2="150" transform="matrix(-0.22007422273556293,-0.11860580292438411,0.11860580292438411,-0.22007422273556293,208.51588978204344,198.85283583766767)" stroke-linecap="round" stroke-width="4" stroke="#1a1a1a"></line><line x1="180" y1="150" x2="190" y2="160" transform="matrix(-0.21714200102325434,-0.1238924993355813,0.1238924993355813,-0.21714200102325434,205.96793279228694,211.57712253568695)" stroke-linecap="round" stroke-width="4" stroke="#1a1a1a"></line><line x1="180" y1="160" x2="190" y2="170" transform="matrix(-0.21511888185389264,-0.1273729432412197,0.1273729432412197,-0.21511888185389264,203.7804575081689,224.05861000551792)" stroke-linecap="round" stroke-width="4" stroke="#1a1a1a"></line><line x1="180" y1="170" x2="190" y2="180" transform="matrix(-0.21345175558641427,-0.1301474088757731,0.1301474088757731,-0.21345175558641427,201.71277823022635,236.43132786964054)" stroke-linecap="round" stroke-width="4" stroke="#1a1a1a"></line><line x1="180" y1="180" x2="190" y2="190" transform="matrix(-0.21155252219753742,-0.13321235059805994,0.13321235059805994,-0.21155252219753742,199.49293174590332,248.7815014671855)" stroke-linecap="round" stroke-width="4" stroke="#1a1a1a"></line><line x1="180" y1="190" x2="190" y2="200" transform="matrix(-0.2088593930829889,-0.1373963388195098,0.1373963388195098,-0.2088593930829889,196.84670165054854,261.14590433279216)" stroke-linecap="round" stroke-width="4" stroke="#1a1a1a"></line><line x1="190" y1="0" x2="200" y2="10" transform="matrix(0.08747585161333746,0.23419644613981946,-0.23419644613981946,0.08747585161333746,179.1131911660983,-41.10568625533148)" stroke-linecap="round" stroke-width="4" stroke="#1a1a1a"></line><line x1="190" y1="10" x2="200" y2="20" transform="matrix(0.04616564292637866,0.24570049534584604,-0.24570049534584604,0.04616564292637866,189.68320705954386,-33.60408123633566)" stroke-linecap="round" stroke-width="4" stroke="#1a1a1a"></line><line x1="190" y1="20" x2="200" y2="30" transform="matrix(-0.005130493846891194,0.24994735052183892,-0.24994735052183892,-0.005130493846891194,202.24913006318977,-23.61147100558631)" stroke-linecap="round" stroke-width="4" stroke="#1a1a1a"></line><line x1="190" y1="30" x2="200" y2="40" transform="matrix(-0.061657979130521394,0.24227730725253693,-0.24227730725253693,-0.061657979130521394,215.50301168429047,-10.086045644676453)" stroke-linecap="round" stroke-width="4" stroke="#1a1a1a"></line><line x1="190" y1="40" x2="200" y2="50" transform="matrix(-0.11726520864155737,0.2207914646046174,-0.2207914646046174,-0.11726520864155737,227.80233159231148,7.222598790969691)" stroke-linecap="round" stroke-width="4" stroke="#1a1a1a"></line><line x1="190" y1="50" x2="200" y2="60" transform="matrix(-0.16618730143708796,0.1867666480961161,-0.1867666480961161,-0.16618730143708796,237.67868942551854,27.7208052002972)" stroke-linecap="round" stroke-width="4" stroke="#1a1a1a"></line><line x1="190" y1="60" x2="200" y2="70" transform="matrix(-0.20446671614656486,0.14385187516414263,-0.14385187516414263,-0.20446671614656486,244.22138153424942,50.2392208925189)" stroke-linecap="round" stroke-width="4" stroke="#1a1a1a"></line><line x1="190" y1="70" x2="200" y2="80" transform="matrix(-0.23046999677526459,0.09686888347869779,-0.09686888347869779,-0.23046999677526459,247.20681563207893,73.39581747979878)" stroke-linecap="round" stroke-width="4" stroke="#1a1a1a"></line><line x1="190" y1="80" x2="200" y2="90" transform="matrix(-0.24484545069606706,0.05050450745665977,-0.05050450745665977,-0.24484545069606706,247.03774601954916,95.96348435511705)" stroke-linecap="round" stroke-width="4" stroke="#1a1a1a"></line><line x1="190" y1="90" x2="200" y2="100" transform="matrix(-0.2498597832617125,0.008371899928334885,-0.008371899928334885,-0.2498597832617125,244.51798822922575,117.10415892383739)" stroke-linecap="round" stroke-width="4" stroke="#1a1a1a"></line><line x1="190" y1="100" x2="200" y2="110" transform="matrix(-0.24849770055780748,-0.027365906114767108,0.027365906114767108,-0.24849770055780748,240.5836314667219,136.42861025094936)" stroke-linecap="round" stroke-width="4" stroke="#1a1a1a"></line><line x1="190" y1="110" x2="200" y2="120" transform="matrix(-0.24367095519141263,-0.05589691937937706,0.05589691937937706,-0.24367095519141263,236.0876905336971,153.92205912599098)" stroke-linecap="round" stroke-width="4" stroke="#1a1a1a"></line><line x1="190" y1="120" x2="200" y2="130" transform="matrix(-0.23771460013817822,-0.07740651704569869,0.07740651704569869,-0.23771460013817822,231.6785323962324,169.80859584118352)" stroke-linecap="round" stroke-width="4" stroke="#1a1a1a"></line><line x1="190" y1="130" x2="200" y2="140" transform="matrix(-0.23218527557120283,-0.09268224106011143,0.09268224106011143,-0.23218527557120283,227.7640261932695,184.4180492088341)" stroke-linecap="round" stroke-width="4" stroke="#1a1a1a"></line><line x1="190" y1="140" x2="200" y2="150" transform="matrix(-0.22788420084017486,-0.10280462541848423,0.10280462541848423,-0.22788420084017486,224.5307484781539,198.0901110784298)" stroke-linecap="round" stroke-width="4" stroke="#1a1a1a"></line><line x1="190" y1="150" x2="200" y2="160" transform="matrix(-0.22500641795043166,-0.10895922118442139,0.10895922118442139,-0.22500641795043166,221.98757221674887,211.12304291327908)" stroke-linecap="round" stroke-width="4" stroke="#1a1a1a"></line><line x1="190" y1="160" x2="200" y2="170" transform="matrix(-0.22333551405867844,-0.11234432856244167,0.11234432856244167,-0.22333551405867844,220.01361102863942,223.75750388935808)" stroke-linecap="round" stroke-width="4" stroke="#1a1a1a"></line><line x1="190" y1="170" x2="200" y2="180" transform="matrix(-0.22242990049672573,-0.11412685645813914,0.11412685645813914,-0.22242990049672573,218.40163071668718,236.17996959626413)" stroke-linecap="round" stroke-width="4" stroke="#1a1a1a"></line><line x1="190" y1="180" x2="200" y2="190" transform="matrix(-0.22176949673991522,-0.11540489727790901,0.11540489727790901,-0.22176949673991522,216.8951458678703,248.53131186607658)" stroke-linecap="round" stroke-width="4" stroke="#1a1a1a"></line><line x1="190" y1="190" x2="200" y2="200" transform="matrix(-0.22084989902315083,-0.11715511982608394,0.11715511982608394,-0.22084989902315083,215.22048194342804,260.9109786756008)" stroke-linecap="round" stroke-width="4" stroke="#1a1a1a"></line></svg>